<?xml version="1.0" encoding="UTF-8" standalone="no"?>
<svg
xmlns:dc="http://purl.org/dc/elements/1.1/"
xmlns:cc="http://creativecommons.org/ns#"
xmlns:rdf="http://www.w3.org/1999/02/22-rdf-syntax-ns#"
xmlns:svg="http://www.w3.org/2000/svg"
xmlns="http://www.w3.org/2000/svg"
height="1920"
width="2560"
version="1.1">
<title>Tigerjython SVG</title>
<desc>Tigerjython SVG</desc>
<path id="path4524" d="M 1280.0,960.0 1280.0,1010.0 1323.3013,1035.0 1280.0,1060.0 1280.0,1110.0 1323.3013,1135.0 1366.6025,1110.0 1366.6025,1160.0 1409.9038,1185.0 1366.6025,1210.0 1366.6025,1260.0 1323.3013,1235.0 1280.0,1260.0 1280.0,1310.0 1323.3013,1335.0 1280.0,1360.0 1280.0,1410.0 1323.3013,1435.0 1366.6025,1410.0 1366.6025,1460.0 1409.9038,1485.0 1453.2051,1460.0 1453.2051,1410.0 1496.5064,1435.0 1539.8076,1410.0 1539.8076,1460.0 1583.1089,1485.0 1539.8076,1510.0 1539.8076,1560.0 1583.1089,1585.0 1626.4102,1560.0 1626.4102,1610.0 1669.7114,1635.0 1626.4102,1660.0 1626.4102,1710.0 1583.1089,1685.0 1539.8076,1710.0 1539.8076,1760.0 1583.1089,1785.0 1539.8076,1810.0 1539.8076,1860.0 1496.5064,1835.0 1453.2051,1860.0 1453.2051,1810.0 1409.9038,1785.0 1366.6025,1810.0 1366.6025,1860.0 1323.3013,1835.0 1280.0,1860.0 1280.0,1910.0 1323.3013,1935.0 1280.0,1960.0 1280.0,2010.0 1323.3013,2035.0 1366.6025,2010.0 1366.6025,2060.0 1409.9038,2085.0 1366.6025,2110.0 1366.6025,2160.0 1323.3013,2135.0 1280.0,2160.0 1280.0,2210.0 1323.3013,2235.0 1280.0,2260.0 1280.0,2310.0 1323.3013,2335.0 1366.6025,2310.0 1366.6025,2360.0 1409.9038,2385.0 1453.2051,2360.0 1453.2051,2310.0 1496.5064,2335.0 1539.8076,2310.0 1539.8076,2360.0 1583.1089,2385.0 1539.8076,2410.0 1539.8076,2460.0 1583.1089,2485.0 1626.4102,2460.0 1626.4102,2510.0 1669.7114,2535.0 1713.0127,2510.0 1713.0127,2460.0 1756.314,2485.0 1799.6152,2460.0 1799.6152,2410.0 1756.314,2385.0 1799.6152,2360.0 1799.6152,2310.0 1842.9165,2335.0 1886.2178,2310.0 1886.2178,2360.0 1929.5191,2385.0 1972.8203,2360.0 1972.8203,2310.0 2016.1216,2335.0 2059.4229,2310.0 2059.4229,2360.0 2102.7241,2385.0 2059.4229,2410.0 2059.4229,2460.0 2102.7241,2485.0 2146.0254,2460.0 2146.0254,2510.0 2189.3267,2535.0 2146.0254,2560.0 2146.0254,2610.0 2102.7241,2585.0 2059.4229,2610.0 2059.4229,2660.0 2102.7241,2685.0 2059.4229,2710.0 2059.4229,2760.0 2102.7241,2785.0 2146.0254,2760.0 2146.0254,2810.0 2189.3267,2835.0 2232.6279,2810.0 2232.6279,2760.0 2275.9292,2785.0 2319.2305,2760.0 2319.2305,2810.0 2362.5318,2835.0 2319.2305,2860.0 2319.2305,2910.0 2362.5318,2935.0 2405.833,2910.0 2405.833,2960.0 2449.1343,2985.0 2405.833,3010.0 2405.833,3060.0 2362.5318,3035.0 2319.2305,3060.0 2319.2305,3110.0 2362.5318,3135.0 2319.2305,3160.0 2319.2305,3210.0 2275.9292,3185.0 2232.6279,3210.0 2232.6279,3160.0 2189.3267,3135.0 2146.0254,3160.0 2146.0254,3210.0 2102.7241,3185.0 2059.4229,3210.0 2059.4229,3260.0 2102.7241,3285.0 2059.4229,3310.0 2059.4229,3360.0 2102.7241,3385.0 2146.0254,3360.0 2146.0254,3410.0 2189.3267,3435.0 2146.0254,3460.0 2146.0254,3510.0 2102.7241,3485.0 2059.4229,3510.0 2059.4229,3560.0 2102.7241,3585.0 2059.4229,3610.0 2059.4229,3660.0 2016.1216,3635.0 1972.8203,3660.0 1972.8203,3610.0 1929.5191,3585.0 1886.2178,3610.0 1886.2178,3660.0 1842.9165,3635.0 1799.6152,3660.0 1799.6152,3610.0 1756.314,3585.0 1799.6152,3560.0 1799.6152,3510.0 1756.314,3485.0 1713.0127,3510.0 1713.0127,3460.0 1669.7114,3435.0 1626.4102,3460.0 1626.4102,3510.0 1583.1089,3485.0 1539.8076,3510.0 1539.8076,3560.0 1583.1089,3585.0 1539.8076,3610.0 1539.8076,3660.0 1496.5064,3635.0 1453.2051,3660.0 1453.2051,3610.0 1409.9038,3585.0 1366.6025,3610.0 1366.6025,3660.0 1323.3013,3635.0 1280.0,3660.0 1280.0,3710.0 1323.3013,3735.0 1280.0,3760.0 1280.0,3810.0 1323.3013,3835.0 1366.6025,3810.0 1366.6025,3860.0 1409.9038,3885.0 1366.6025,3910.0 1366.6025,3960.0 1323.3013,3935.0 1280.0,3960.0 1280.0,4010.0 1323.3013,4035.0 1280.0,4060.0 1280.0,4110.0 1323.3013,4135.0 1366.6025,4110.0 1366.6025,4160.0 1409.9038,4185.0 1453.2051,4160.0 1453.2051,4110.0 1496.5064,4135.0 1539.8076,4110.0 1539.8076,4160.0 1583.1089,4185.0 1539.8076,4210.0 1539.8076,4260.0 1583.1089,4285.0 1626.4102,4260.0 1626.4102,4310.0 1669.7114,4335.0 1626.4102,4360.0 1626.4102,4410.0 1583.1089,4385.0 1539.8076,4410.0 1539.8076,4460.0 1583.1089,4485.0 1539.8076,4510.0 1539.8076,4560.0 1496.5064,4535.0 1453.2051,4560.0 1453.2051,4510.0 1409.9038,4485.0 1366.6025,4510.0 1366.6025,4560.0 1323.3013,4535.0 1280.0,4560.0 1280.0,4610.0 1323.3013,4635.0 1280.0,4660.0 1280.0,4710.0 1323.3013,4735.0 1366.6025,4710.0 1366.6025,4760.0 1409.9038,4785.0 1366.6025,4810.0 1366.6025,4860.0 1323.3013,4835.0 1280.0,4860.0 1280.0,4910.0 1323.3013,4935.0 1280.0,4960.0 1280.0,5010.0 1236.6987,4985.0 1193.3975,5010.0 1193.3975,4960.0 1150.0962,4935.0 1106.7949,4960.0 1106.7949,5010.0 1063.4936,4985.0 1020.1924,5010.0 1020.1924,4960.0 976.8911,4935.0 1020.1924,4910.0 1020.1924,4860.0 976.8911,4835.0 933.5898,4860.0 933.5898,4810.0 890.2886,4785.0 846.9873,4810.0 846.9873,4860.0 803.686,4835.0 760.3848,4860.0 760.3848,4910.0 803.686,4935.0 760.3848,4960.0 760.3848,5010.0 717.0835,4985.0 673.7822,5010.0 673.7822,4960.0 630.4809,4935.0 587.1797,4960.0 587.1797,5010.0 543.8784,4985.0 500.5771,5010.0 500.5771,4960.0 457.2759,4935.0 500.5771,4910.0 500.5771,4860.0 457.2759,4835.0 413.9746,4860.0 413.9746,4810.0 370.6733,4785.0 413.9746,4760.0 413.9746,4710.0 457.2759,4735.0 500.5771,4710.0 500.5771,4660.0 457.2759,4635.0 500.5771,4610.0 500.5771,4560.0 457.2759,4535.0 413.9746,4560.0 413.9746,4510.0 370.6733,4485.0 327.3721,4510.0 327.3721,4560.0 284.0708,4535.0 240.7695,4560.0 240.7695,4510.0 197.4682,4485.0 240.7695,4460.0 240.7695,4410.0 197.4682,4385.0 154.167,4410.0 154.167,4360.0 110.8657,4335.0 67.5644,4360.0 67.5644,4410.0 24.2632,4385.0 -19.0381,4410.0 -19.0381,4460.0 24.2632,4485.0 -19.0381,4510.0 -19.0381,4560.0 -62.3394,4535.0 -105.6406,4560.0 -105.6406,4510.0 -148.9419,4485.0 -192.2432,4510.0 -192.2432,4560.0 -235.5445,4535.0 -278.8457,4560.0 -278.8457,4610.0 -235.5445,4635.0 -278.8457,4660.0 -278.8457,4710.0 -235.5445,4735.0 -192.2432,4710.0 -192.2432,4760.0 -148.9419,4785.0 -192.2432,4810.0 -192.2432,4860.0 -235.5445,4835.0 -278.8457,4860.0 -278.8457,4910.0 -235.5445,4935.0 -278.8457,4960.0 -278.8457,5010.0 -322.147,4985.0 -365.4483,5010.0 -365.4483,4960.0 -408.7495,4935.0 -452.0508,4960.0 -452.0508,5010.0 -495.3521,4985.0 -538.6533,5010.0 -538.6533,4960.0 -581.9546,4935.0 -538.6533,4910.0 -538.6533,4860.0 -581.9546,4835.0 -625.2559,4860.0 -625.2559,4810.0 -668.5572,4785.0 -711.8584,4810.0 -711.8584,4860.0 -755.1597,4835.0 -798.461,4860.0 -798.461,4910.0 -755.1597,4935.0 -798.461,4960.0 -798.461,5010.0 -841.7622,4985.0 -885.0635,5010.0 -885.0635,4960.0 -928.3648,4935.0 -971.666,4960.0 -971.666,5010.0 -1014.9673,4985.0 -1058.2686,5010.0 -1058.2686,4960.0 -1101.5699,4935.0 -1058.2686,4910.0 -1058.2686,4860.0 -1101.5699,4835.0 -1144.8711,4860.0 -1144.8711,4810.0 -1188.1724,4785.0 -1144.8711,4760.0 -1144.8711,4710.0 -1101.5699,4735.0 -1058.2686,4710.0 -1058.2686,4660.0 -1101.5699,4635.0 -1058.2686,4610.0 -1058.2686,4560.0 -1101.5699,4535.0 -1144.8711,4560.0 -1144.8711,4510.0 -1188.1724,4485.0 -1231.4737,4510.0 -1231.4737,4560.0 -1274.7749,4535.0 -1318.0762,4560.0 -1318.0762,4510.0 -1361.3775,4485.0 -1318.0762,4460.0 -1318.0762,4410.0 -1361.3775,4385.0 -1404.6788,4410.0 -1404.6788,4360.0 -1447.98,4335.0 -1404.6788,4310.0 -1404.6788,4260.0 -1361.3775,4285.0 -1318.0762,4260.0 -1318.0762,4210.0 -1361.3775,4185.0 -1318.0762,4160.0 -1318.0762,4110.0 -1274.7749,4135.0 -1231.4737,4110.0 -1231.4737,4160.0 -1188.1724,4185.0 -1144.8711,4160.0 -1144.8711,4110.0 -1101.5699,4135.0 -1058.2686,4110.0 -1058.2686,4060.0 -1101.5699,4035.0 -1058.2686,4010.0 -1058.2686,3960.0 -1101.5699,3935.0 -1144.8711,3960.0 -1144.8711,3910.0 -1188.1724,3885.0 -1144.8711,3860.0 -1144.8711,3810.0 -1101.5699,3835.0 -1058.2686,3810.0 -1058.2686,3760.0 -1101.5699,3735.0 -1058.2686,3710.0 -1058.2686,3660.0 -1101.5699,3635.0 -1144.8711,3660.0 -1144.8711,3610.0 -1188.1724,3585.0 -1231.4737,3610.0 -1231.4737,3660.0 -1274.7749,3635.0 -1318.0762,3660.0 -1318.0762,3610.0 -1361.3775,3585.0 -1318.0762,3560.0 -1318.0762,3510.0 -1361.3775,3485.0 -1404.6788,3510.0 -1404.6788,3460.0 -1447.98,3435.0 -1491.2813,3460.0 -1491.2813,3510.0 -1534.5826,3485.0 -1577.8838,3510.0 -1577.8838,3560.0 -1534.5826,3585.0 -1577.8838,3610.0 -1577.8838,3660.0 -1621.1851,3635.0 -1664.4864,3660.0 -1664.4864,3610.0 -1707.7876,3585.0 -1751.0889,3610.0 -1751.0889,3660.0 -1794.3902,3635.0 -1837.6915,3660.0 -1837.6915,3610.0 -1880.9927,3585.0 -1837.6915,3560.0 -1837.6915,3510.0 -1880.9927,3485.0 -1924.294,3510.0 -1924.294,3460.0 -1967.5953,3435.0 -1924.294,3410.0 -1924.294,3360.0 -1880.9927,3385.0 -1837.6915,3360.0 -1837.6915,3310.0 -1880.9927,3285.0 -1837.6915,3260.0 -1837.6915,3210.0 -1880.9927,3185.0 -1924.294,3210.0 -1924.294,3160.0 -1967.5953,3135.0 -2010.8965,3160.0 -2010.8965,3210.0 -2054.1978,3185.0 -2097.4991,3210.0 -2097.4991,3160.0 -2140.8003,3135.0 -2097.4991,3110.0 -2097.4991,3060.0 -2140.8003,3035.0 -2184.1016,3060.0 -2184.1016,3010.0 -2227.4029,2985.0 -2184.1016,2960.0 -2184.1016,2910.0 -2140.8003,2935.0 -2097.4991,2910.0 -2097.4991,2860.0 -2140.8003,2835.0 -2097.4991,2810.0 -2097.4991,2760.0 -2054.1978,2785.0 -2010.8965,2760.0 -2010.8965,2810.0 -1967.5953,2835.0 -1924.294,2810.0 -1924.294,2760.0 -1880.9927,2785.0 -1837.6915,2760.0 -1837.6915,2710.0 -1880.9927,2685.0 -1837.6915,2660.0 -1837.6915,2610.0 -1880.9927,2585.0 -1924.294,2610.0 -1924.294,2560.0 -1967.5953,2535.0 -1924.294,2510.0 -1924.294,2460.0 -1880.9927,2485.0 -1837.6915,2460.0 -1837.6915,2410.0 -1880.9927,2385.0 -1837.6915,2360.0 -1837.6915,2310.0 -1794.3902,2335.0 -1751.0889,2310.0 -1751.0889,2360.0 -1707.7876,2385.0 -1664.4864,2360.0 -1664.4864,2310.0 -1621.1851,2335.0 -1577.8838,2310.0 -1577.8838,2360.0 -1534.5826,2385.0 -1577.8838,2410.0 -1577.8838,2460.0 -1534.5826,2485.0 -1491.2813,2460.0 -1491.2813,2510.0 -1447.98,2535.0 -1404.6788,2510.0 -1404.6788,2460.0 -1361.3775,2485.0 -1318.0762,2460.0 -1318.0762,2410.0 -1361.3775,2385.0 -1318.0762,2360.0 -1318.0762,2310.0 -1274.7749,2335.0 -1231.4737,2310.0 -1231.4737,2360.0 -1188.1724,2385.0 -1144.8711,2360.0 -1144.8711,2310.0 -1101.5699,2335.0 -1058.2686,2310.0 -1058.2686,2260.0 -1101.5699,2235.0 -1058.2686,2210.0 -1058.2686,2160.0 -1101.5699,2135.0 -1144.8711,2160.0 -1144.8711,2110.0 -1188.1724,2085.0 -1144.8711,2060.0 -1144.8711,2010.0 -1101.5699,2035.0 -1058.2686,2010.0 -1058.2686,1960.0 -1101.5699,1935.0 -1058.2686,1910.0 -1058.2686,1860.0 -1101.5699,1835.0 -1144.8711,1860.0 -1144.8711,1810.0 -1188.1724,1785.0 -1231.4737,1810.0 -1231.4737,1860.0 -1274.7749,1835.0 -1318.0762,1860.0 -1318.0762,1810.0 -1361.3775,1785.0 -1318.0762,1760.0 -1318.0762,1710.0 -1361.3775,1685.0 -1404.6788,1710.0 -1404.6788,1660.0 -1447.98,1635.0 -1404.6788,1610.0 -1404.6788,1560.0 -1361.3775,1585.0 -1318.0762,1560.0 -1318.0762,1510.0 -1361.3775,1485.0 -1318.0762,1460.0 -1318.0762,1410.0 -1274.7749,1435.0 -1231.4737,1410.0 -1231.4737,1460.0 -1188.1724,1485.0 -1144.8711,1460.0 -1144.8711,1410.0 -1101.5699,1435.0 -1058.2686,1410.0 -1058.2686,1360.0 -1101.5699,1335.0 -1058.2686,1310.0 -1058.2686,1260.0 -1101.5699,1235.0 -1144.8711,1260.0 -1144.8711,1210.0 -1188.1724,1185.0 -1144.8711,1160.0 -1144.8711,1110.0 -1101.5699,1135.0 -1058.2686,1110.0 -1058.2686,1060.0 -1101.5699,1035.0 -1058.2686,1010.0 -1058.2686,960.0 -1014.9673,985.0 -971.666,960.0 -971.666,1010.0 -928.3648,1035.0 -885.0635,1010.0 -885.0635,960.0 -841.7622,985.0 -798.461,960.0 -798.461,1010.0 -755.1597,1035.0 -798.461,1060.0 -798.461,1110.0 -755.1597,1135.0 -711.8584,1110.0 -711.8584,1160.0 -668.5572,1185.0 -625.2559,1160.0 -625.2559,1110.0 -581.9546,1135.0 -538.6533,1110.0 -538.6533,1060.0 -581.9546,1035.0 -538.6533,1010.0 -538.6533,960.0 -495.3521,985.0 -452.0508,960.0 -452.0508,1010.0 -408.7495,1035.0 -365.4483,1010.0 -365.4483,960.0 -322.147,985.0 -278.8457,960.0 -278.8457,1010.0 -235.5445,1035.0 -278.8457,1060.0 -278.8457,1110.0 -235.5445,1135.0 -192.2432,1110.0 -192.2432,1160.0 -148.9419,1185.0 -192.2432,1210.0 -192.2432,1260.0 -235.5445,1235.0 -278.8457,1260.0 -278.8457,1310.0 -235.5445,1335.0 -278.8457,1360.0 -278.8457,1410.0 -235.5445,1435.0 -192.2432,1410.0 -192.2432,1460.0 -148.9419,1485.0 -105.6406,1460.0 -105.6406,1410.0 -62.3394,1435.0 -19.0381,1410.0 -19.0381,1460.0 24.2632,1485.0 -19.0381,1510.0 -19.0381,1560.0 24.2632,1585.0 67.5644,1560.0 67.5644,1610.0 110.8657,1635.0 154.167,1610.0 154.167,1560.0 197.4682,1585.0 240.7695,1560.0 240.7695,1510.0 197.4682,1485.0 240.7695,1460.0 240.7695,1410.0 284.0708,1435.0 327.3721,1410.0 327.3721,1460.0 370.6733,1485.0 413.9746,1460.0 413.9746,1410.0 457.2759,1435.0 500.5771,1410.0 500.5771,1360.0 457.2759,1335.0 500.5771,1310.0 500.5771,1260.0 457.2759,1235.0 413.9746,1260.0 413.9746,1210.0 370.6733,1185.0 413.9746,1160.0 413.9746,1110.0 457.2759,1135.0 500.5771,1110.0 500.5771,1060.0 457.2759,1035.0 500.5771,1010.0 500.5771,960.0 543.8784,985.0 587.1797,960.0 587.1797,1010.0 630.4809,1035.0 673.7822,1010.0 673.7822,960.0 717.0835,985.0 760.3848,960.0 760.3848,1010.0 803.686,1035.0 760.3848,1060.0 760.3848,1110.0 803.686,1135.0 846.9873,1110.0 846.9873,1160.0 890.2886,1185.0 933.5898,1160.0 933.5898,1110.0 976.8911,1135.0 1020.1924,1110.0 1020.1924,1060.0 976.8911,1035.0 1020.1924,1010.0 1020.1924,960.0 1063.4936,985.0 1106.7949,960.0 1106.7949,1010.0 1150.0962,1035.0 1193.3975,1010.0 1193.3975,960.0 1236.6987,985.0 1280.0,960.0 1280.0,960.0" style="fill:none;stroke:#000000;stroke-width:0.3px;stroke-linecap:butt;stroke-linejoin:miter;stroke-opacity:1" />
</svg>
