<?xml version="1.0" encoding="UTF-8" standalone="no"?>
<svg
xmlns:dc="http://purl.org/dc/elements/1.1/"
xmlns:cc="http://creativecommons.org/ns#"
xmlns:rdf="http://www.w3.org/1999/02/22-rdf-syntax-ns#"
xmlns:svg="http://www.w3.org/2000/svg"
xmlns="http://www.w3.org/2000/svg"
height="1920"
width="2560"
version="1.1">
<title>Tigerjython SVG</title>
<desc>Tigerjython SVG</desc>
<path id="path4524" d="M 1280.0,960.0 1280.0,1010.0 1323.3013,1035.0 1280.0,1060.0 1280.0,1110.0 1323.3013,1135.0 1366.6025,1110.0 1366.6025,1160.0 1409.9038,1185.0 1366.6025,1210.0 1366.6025,1260.0 1323.3013,1235.0 1280.0,1260.0 1280.0,1310.0 1323.3013,1335.0 1280.0,1360.0 1280.0,1410.0 1323.3013,1435.0 1366.6025,1410.0 1366.6025,1460.0 1409.9038,1485.0 1453.2051,1460.0 1453.2051,1410.0 1496.5064,1435.0 1539.8076,1410.0 1539.8076,1460.0 1583.1089,1485.0 1539.8076,1510.0 1539.8076,1560.0 1583.1089,1585.0 1626.4102,1560.0 1626.4102,1610.0 1669.7114,1635.0 1626.4102,1660.0 1626.4102,1710.0 1583.1089,1685.0 1539.8076,1710.0 1539.8076,1760.0 1583.1089,1785.0 1539.8076,1810.0 1539.8076,1860.0 1496.5064,1835.0 1453.2051,1860.0 1453.2051,1810.0 1409.9038,1785.0 1366.6025,1810.0 1366.6025,1860.0 1323.3013,1835.0 1280.0,1860.0 1280.0,1910.0 1323.3013,1935.0 1280.0,1960.0 1280.0,2010.0 1323.3013,2035.0 1366.6025,2010.0 1366.6025,2060.0 1409.9038,2085.0 1366.6025,2110.0 1366.6025,2160.0 1323.3013,2135.0 1280.0,2160.0 1280.0,2210.0 1323.3013,2235.0 1280.0,2260.0 1280.0,2310.0 1236.6987,2285.0 1193.3975,2310.0 1193.3975,2260.0 1150.0962,2235.0 1106.7949,2260.0 1106.7949,2310.0 1063.4936,2285.0 1020.1924,2310.0 1020.1924,2260.0 976.8911,2235.0 1020.1924,2210.0 1020.1924,2160.0 976.8911,2135.0 933.5898,2160.0 933.5898,2110.0 890.2886,2085.0 846.9873,2110.0 846.9873,2160.0 803.686,2135.0 760.3848,2160.0 760.3848,2210.0 803.686,2235.0 760.3848,2260.0 760.3848,2310.0 717.0835,2285.0 673.7822,2310.0 673.7822,2260.0 630.4809,2235.0 587.1797,2260.0 587.1797,2310.0 543.8784,2285.0 500.5771,2310.0 500.5771,2260.0 457.2759,2235.0 500.5771,2210.0 500.5771,2160.0 457.2759,2135.0 413.9746,2160.0 413.9746,2110.0 370.6733,2085.0 413.9746,2060.0 413.9746,2010.0 457.2759,2035.0 500.5771,2010.0 500.5771,1960.0 457.2759,1935.0 500.5771,1910.0 500.5771,1860.0 457.2759,1835.0 413.9746,1860.0 413.9746,1810.0 370.6733,1785.0 327.3721,1810.0 327.3721,1860.0 284.0708,1835.0 240.7695,1860.0 240.7695,1810.0 197.4682,1785.0 240.7695,1760.0 240.7695,1710.0 197.4682,1685.0 154.167,1710.0 154.167,1660.0 110.8657,1635.0 154.167,1610.0 154.167,1560.0 197.4682,1585.0 240.7695,1560.0 240.7695,1510.0 197.4682,1485.0 240.7695,1460.0 240.7695,1410.0 284.0708,1435.0 327.3721,1410.0 327.3721,1460.0 370.6733,1485.0 413.9746,1460.0 413.9746,1410.0 457.2759,1435.0 500.5771,1410.0 500.5771,1360.0 457.2759,1335.0 500.5771,1310.0 500.5771,1260.0 457.2759,1235.0 413.9746,1260.0 413.9746,1210.0 370.6733,1185.0 413.9746,1160.0 413.9746,1110.0 457.2759,1135.0 500.5771,1110.0 500.5771,1060.0 457.2759,1035.0 500.5771,1010.0 500.5771,960.0 543.8784,985.0 587.1797,960.0 587.1797,1010.0 630.4809,1035.0 673.7822,1010.0 673.7822,960.0 717.0835,985.0 760.3848,960.0 760.3848,1010.0 803.686,1035.0 760.3848,1060.0 760.3848,1110.0 803.686,1135.0 846.9873,1110.0 846.9873,1160.0 890.2886,1185.0 933.5898,1160.0 933.5898,1110.0 976.8911,1135.0 1020.1924,1110.0 1020.1924,1060.0 976.8911,1035.0 1020.1924,1010.0 1020.1924,960.0 1063.4936,985.0 1106.7949,960.0 1106.7949,1010.0 1150.0962,1035.0 1193.3975,1010.0 1193.3975,960.0 1236.6987,985.0 1280.0,960.0 1280.0,960.0" style="fill:none;stroke:#000000;stroke-width:0.3px;stroke-linecap:butt;stroke-linejoin:miter;stroke-opacity:1" />
</svg>
