<?xml version="1.0" encoding="UTF-8" standalone="no"?>
<svg
xmlns:dc="http://purl.org/dc/elements/1.1/"
xmlns:cc="http://creativecommons.org/ns#"
xmlns:rdf="http://www.w3.org/1999/02/22-rdf-syntax-ns#"
xmlns:svg="http://www.w3.org/2000/svg"
xmlns="http://www.w3.org/2000/svg"
height="1920"
width="2560"
version="1.1">
<title>Tigerjython SVG</title>
<desc>Tigerjython SVG</desc>
<path id="path4524" d="M 1280.0,960.0 1280.0,1010.0 1323.3013,1035.0 1280.0,1060.0 1280.0,1110.0 1323.3013,1135.0 1366.6025,1110.0 1366.6025,1160.0 1409.9038,1185.0 1366.6025,1210.0 1366.6025,1260.0 1323.3013,1235.0 1280.0,1260.0 1280.0,1310.0 1323.3013,1335.0 1280.0,1360.0 1280.0,1410.0 1323.3013,1435.0 1366.6025,1410.0 1366.6025,1460.0 1409.9038,1485.0 1453.2051,1460.0 1453.2051,1410.0 1496.5064,1435.0 1539.8076,1410.0 1539.8076,1460.0 1583.1089,1485.0 1539.8076,1510.0 1539.8076,1560.0 1583.1089,1585.0 1626.4102,1560.0 1626.4102,1610.0 1669.7114,1635.0 1626.4102,1660.0 1626.4102,1710.0 1583.1089,1685.0 1539.8076,1710.0 1539.8076,1760.0 1583.1089,1785.0 1539.8076,1810.0 1539.8076,1860.0 1496.5064,1835.0 1453.2051,1860.0 1453.2051,1810.0 1409.9038,1785.0 1366.6025,1810.0 1366.6025,1860.0 1323.3013,1835.0 1280.0,1860.0 1280.0,1910.0 1323.3013,1935.0 1280.0,1960.0 1280.0,2010.0 1323.3013,2035.0 1366.6025,2010.0 1366.6025,2060.0 1409.9038,2085.0 1366.6025,2110.0 1366.6025,2160.0 1323.3013,2135.0 1280.0,2160.0 1280.0,2210.0 1323.3013,2235.0 1280.0,2260.0 1280.0,2310.0 1323.3013,2335.0 1366.6025,2310.0 1366.6025,2360.0 1409.9038,2385.0 1453.2051,2360.0 1453.2051,2310.0 1496.5064,2335.0 1539.8076,2310.0 1539.8076,2360.0 1583.1089,2385.0 1539.8076,2410.0 1539.8076,2460.0 1583.1089,2485.0 1626.4102,2460.0 1626.4102,2510.0 1669.7114,2535.0 1713.0127,2510.0 1713.0127,2460.0 1756.314,2485.0 1799.6152,2460.0 1799.6152,2410.0 1756.314,2385.0 1799.6152,2360.0 1799.6152,2310.0 1842.9165,2335.0 1886.2178,2310.0 1886.2178,2360.0 1929.5191,2385.0 1972.8203,2360.0 1972.8203,2310.0 2016.1216,2335.0 2059.4229,2310.0 2059.4229,2360.0 2102.7241,2385.0 2059.4229,2410.0 2059.4229,2460.0 2102.7241,2485.0 2146.0254,2460.0 2146.0254,2510.0 2189.3267,2535.0 2146.0254,2560.0 2146.0254,2610.0 2102.7241,2585.0 2059.4229,2610.0 2059.4229,2660.0 2102.7241,2685.0 2059.4229,2710.0 2059.4229,2760.0 2102.7241,2785.0 2146.0254,2760.0 2146.0254,2810.0 2189.3267,2835.0 2232.6279,2810.0 2232.6279,2760.0 2275.9292,2785.0 2319.2305,2760.0 2319.2305,2810.0 2362.5318,2835.0 2319.2305,2860.0 2319.2305,2910.0 2362.5318,2935.0 2405.833,2910.0 2405.833,2960.0 2449.1343,2985.0 2405.833,3010.0 2405.833,3060.0 2362.5318,3035.0 2319.2305,3060.0 2319.2305,3110.0 2362.5318,3135.0 2319.2305,3160.0 2319.2305,3210.0 2275.9292,3185.0 2232.6279,3210.0 2232.6279,3160.0 2189.3267,3135.0 2146.0254,3160.0 2146.0254,3210.0 2102.7241,3185.0 2059.4229,3210.0 2059.4229,3260.0 2102.7241,3285.0 2059.4229,3310.0 2059.4229,3360.0 2102.7241,3385.0 2146.0254,3360.0 2146.0254,3410.0 2189.3267,3435.0 2146.0254,3460.0 2146.0254,3510.0 2102.7241,3485.0 2059.4229,3510.0 2059.4229,3560.0 2102.7241,3585.0 2059.4229,3610.0 2059.4229,3660.0 2016.1216,3635.0 1972.8203,3660.0 1972.8203,3610.0 1929.5191,3585.0 1886.2178,3610.0 1886.2178,3660.0 1842.9165,3635.0 1799.6152,3660.0 1799.6152,3610.0 1756.314,3585.0 1799.6152,3560.0 1799.6152,3510.0 1756.314,3485.0 1713.0127,3510.0 1713.0127,3460.0 1669.7114,3435.0 1626.4102,3460.0 1626.4102,3510.0 1583.1089,3485.0 1539.8076,3510.0 1539.8076,3560.0 1583.1089,3585.0 1539.8076,3610.0 1539.8076,3660.0 1496.5064,3635.0 1453.2051,3660.0 1453.2051,3610.0 1409.9038,3585.0 1366.6025,3610.0 1366.6025,3660.0 1323.3013,3635.0 1280.0,3660.0 1280.0,3710.0 1323.3013,3735.0 1280.0,3760.0 1280.0,3810.0 1323.3013,3835.0 1366.6025,3810.0 1366.6025,3860.0 1409.9038,3885.0 1366.6025,3910.0 1366.6025,3960.0 1323.3013,3935.0 1280.0,3960.0 1280.0,4010.0 1323.3013,4035.0 1280.0,4060.0 1280.0,4110.0 1323.3013,4135.0 1366.6025,4110.0 1366.6025,4160.0 1409.9038,4185.0 1453.2051,4160.0 1453.2051,4110.0 1496.5064,4135.0 1539.8076,4110.0 1539.8076,4160.0 1583.1089,4185.0 1539.8076,4210.0 1539.8076,4260.0 1583.1089,4285.0 1626.4102,4260.0 1626.4102,4310.0 1669.7114,4335.0 1626.4102,4360.0 1626.4102,4410.0 1583.1089,4385.0 1539.8076,4410.0 1539.8076,4460.0 1583.1089,4485.0 1539.8076,4510.0 1539.8076,4560.0 1496.5064,4535.0 1453.2051,4560.0 1453.2051,4510.0 1409.9038,4485.0 1366.6025,4510.0 1366.6025,4560.0 1323.3013,4535.0 1280.0,4560.0 1280.0,4610.0 1323.3013,4635.0 1280.0,4660.0 1280.0,4710.0 1323.3013,4735.0 1366.6025,4710.0 1366.6025,4760.0 1409.9038,4785.0 1366.6025,4810.0 1366.6025,4860.0 1323.3013,4835.0 1280.0,4860.0 1280.0,4910.0 1323.3013,4935.0 1280.0,4960.0 1280.0,5010.0 1323.3013,5035.0 1366.6025,5010.0 1366.6025,5060.0 1409.9038,5085.0 1453.2051,5060.0 1453.2051,5010.0 1496.5064,5035.0 1539.8076,5010.0 1539.8076,5060.0 1583.1089,5085.0 1539.8076,5110.0 1539.8076,5160.0 1583.1089,5185.0 1626.4102,5160.0 1626.4102,5210.0 1669.7114,5235.0 1713.0127,5210.0 1713.0127,5160.0 1756.314,5185.0 1799.6152,5160.0 1799.6152,5110.0 1756.314,5085.0 1799.6152,5060.0 1799.6152,5010.0 1842.9165,5035.0 1886.2178,5010.0 1886.2178,5060.0 1929.5191,5085.0 1972.8203,5060.0 1972.8203,5010.0 2016.1216,5035.0 2059.4229,5010.0 2059.4229,5060.0 2102.7241,5085.0 2059.4229,5110.0 2059.4229,5160.0 2102.7241,5185.0 2146.0254,5160.0 2146.0254,5210.0 2189.3267,5235.0 2146.0254,5260.0 2146.0254,5310.0 2102.7241,5285.0 2059.4229,5310.0 2059.4229,5360.0 2102.7241,5385.0 2059.4229,5410.0 2059.4229,5460.0 2102.7241,5485.0 2146.0254,5460.0 2146.0254,5510.0 2189.3267,5535.0 2232.6279,5510.0 2232.6279,5460.0 2275.9292,5485.0 2319.2305,5460.0 2319.2305,5510.0 2362.5318,5535.0 2319.2305,5560.0 2319.2305,5610.0 2362.5318,5635.0 2405.833,5610.0 2405.833,5660.0 2449.1343,5685.0 2492.4356,5660.0 2492.4356,5610.0 2535.7368,5635.0 2579.0381,5610.0 2579.0381,5560.0 2535.7368,5535.0 2579.0381,5510.0 2579.0381,5460.0 2622.3394,5485.0 2665.6406,5460.0 2665.6406,5510.0 2708.9419,5535.0 2752.2432,5510.0 2752.2432,5460.0 2795.5445,5485.0 2838.8457,5460.0 2838.8457,5410.0 2795.5445,5385.0 2838.8457,5360.0 2838.8457,5310.0 2795.5445,5285.0 2752.2432,5310.0 2752.2432,5260.0 2708.9419,5235.0 2752.2432,5210.0 2752.2432,5160.0 2795.5445,5185.0 2838.8457,5160.0 2838.8457,5110.0 2795.5445,5085.0 2838.8457,5060.0 2838.8457,5010.0 2882.147,5035.0 2925.4483,5010.0 2925.4483,5060.0 2968.7495,5085.0 3012.0508,5060.0 3012.0508,5010.0 3055.3521,5035.0 3098.6533,5010.0 3098.6533,5060.0 3141.9546,5085.0 3098.6533,5110.0 3098.6533,5160.0 3141.9546,5185.0 3185.2559,5160.0 3185.2559,5210.0 3228.5572,5235.0 3271.8584,5210.0 3271.8584,5160.0 3315.1597,5185.0 3358.461,5160.0 3358.461,5110.0 3315.1597,5085.0 3358.461,5060.0 3358.461,5010.0 3401.7622,5035.0 3445.0635,5010.0 3445.0635,5060.0 3488.3648,5085.0 3531.666,5060.0 3531.666,5010.0 3574.9673,5035.0 3618.2686,5010.0 3618.2686,5060.0 3661.5699,5085.0 3618.2686,5110.0 3618.2686,5160.0 3661.5699,5185.0 3704.8711,5160.0 3704.8711,5210.0 3748.1724,5235.0 3704.8711,5260.0 3704.8711,5310.0 3661.5699,5285.0 3618.2686,5310.0 3618.2686,5360.0 3661.5699,5385.0 3618.2686,5410.0 3618.2686,5460.0 3661.5699,5485.0 3704.8711,5460.0 3704.8711,5510.0 3748.1724,5535.0 3791.4737,5510.0 3791.4737,5460.0 3834.7749,5485.0 3878.0762,5460.0 3878.0762,5510.0 3921.3775,5535.0 3878.0762,5560.0 3878.0762,5610.0 3921.3775,5635.0 3964.6788,5610.0 3964.6788,5660.0 4007.98,5685.0 3964.6788,5710.0 3964.6788,5760.0 3921.3775,5735.0 3878.0762,5760.0 3878.0762,5810.0 3921.3775,5835.0 3878.0762,5860.0 3878.0762,5910.0 3834.7749,5885.0 3791.4737,5910.0 3791.4737,5860.0 3748.1724,5835.0 3704.8711,5860.0 3704.8711,5910.0 3661.5699,5885.0 3618.2686,5910.0 3618.2686,5960.0 3661.5699,5985.0 3618.2686,6010.0 3618.2686,6060.0 3661.5699,6085.0 3704.8711,6060.0 3704.8711,6110.0 3748.1724,6135.0 3704.8711,6160.0 3704.8711,6210.0 3661.5699,6185.0 3618.2686,6210.0 3618.2686,6260.0 3661.5699,6285.0 3618.2686,6310.0 3618.2686,6360.0 3661.5699,6385.0 3704.8711,6360.0 3704.8711,6410.0 3748.1724,6435.0 3791.4737,6410.0 3791.4737,6360.0 3834.7749,6385.0 3878.0762,6360.0 3878.0762,6410.0 3921.3775,6435.0 3878.0762,6460.0 3878.0762,6510.0 3921.3775,6535.0 3964.6788,6510.0 3964.6788,6560.0 4007.98,6585.0 4051.2813,6560.0 4051.2813,6510.0 4094.5826,6535.0 4137.8838,6510.0 4137.8838,6460.0 4094.5826,6435.0 4137.8838,6410.0 4137.8838,6360.0 4181.1851,6385.0 4224.4864,6360.0 4224.4864,6410.0 4267.7876,6435.0 4311.0889,6410.0 4311.0889,6360.0 4354.3902,6385.0 4397.6915,6360.0 4397.6915,6410.0 4440.9927,6435.0 4397.6915,6460.0 4397.6915,6510.0 4440.9927,6535.0 4484.294,6510.0 4484.294,6560.0 4527.5953,6585.0 4484.294,6610.0 4484.294,6660.0 4440.9927,6635.0 4397.6915,6660.0 4397.6915,6710.0 4440.9927,6735.0 4397.6915,6760.0 4397.6915,6810.0 4440.9927,6835.0 4484.294,6810.0 4484.294,6860.0 4527.5953,6885.0 4570.8965,6860.0 4570.8965,6810.0 4614.1978,6835.0 4657.4991,6810.0 4657.4991,6860.0 4700.8003,6885.0 4657.4991,6910.0 4657.4991,6960.0 4700.8003,6985.0 4744.1016,6960.0 4744.1016,7010.0 4787.4029,7035.0 4744.1016,7060.0 4744.1016,7110.0 4700.8003,7085.0 4657.4991,7110.0 4657.4991,7160.0 4700.8003,7185.0 4657.4991,7210.0 4657.4991,7260.0 4614.1978,7235.0 4570.8965,7260.0 4570.8965,7210.0 4527.5953,7185.0 4484.294,7210.0 4484.294,7260.0 4440.9927,7235.0 4397.6915,7260.0 4397.6915,7310.0 4440.9927,7335.0 4397.6915,7360.0 4397.6915,7410.0 4440.9927,7435.0 4484.294,7410.0 4484.294,7460.0 4527.5953,7485.0 4484.294,7510.0 4484.294,7560.0 4440.9927,7535.0 4397.6915,7560.0 4397.6915,7610.0 4440.9927,7635.0 4397.6915,7660.0 4397.6915,7710.0 4354.3902,7685.0 4311.0889,7710.0 4311.0889,7660.0 4267.7876,7635.0 4224.4864,7660.0 4224.4864,7710.0 4181.1851,7685.0 4137.8838,7710.0 4137.8838,7660.0 4094.5826,7635.0 4137.8838,7610.0 4137.8838,7560.0 4094.5826,7535.0 4051.2813,7560.0 4051.2813,7510.0 4007.98,7485.0 3964.6788,7510.0 3964.6788,7560.0 3921.3775,7535.0 3878.0762,7560.0 3878.0762,7610.0 3921.3775,7635.0 3878.0762,7660.0 3878.0762,7710.0 3834.7749,7685.0 3791.4737,7710.0 3791.4737,7660.0 3748.1724,7635.0 3704.8711,7660.0 3704.8711,7710.0 3661.5699,7685.0 3618.2686,7710.0 3618.2686,7760.0 3661.5699,7785.0 3618.2686,7810.0 3618.2686,7860.0 3661.5699,7885.0 3704.8711,7860.0 3704.8711,7910.0 3748.1724,7935.0 3704.8711,7960.0 3704.8711,8010.0 3661.5699,7985.0 3618.2686,8010.0 3618.2686,8060.0 3661.5699,8085.0 3618.2686,8110.0 3618.2686,8160.0 3661.5699,8185.0 3704.8711,8160.0 3704.8711,8210.0 3748.1724,8235.0 3791.4737,8210.0 3791.4737,8160.0 3834.7749,8185.0 3878.0762,8160.0 3878.0762,8210.0 3921.3775,8235.0 3878.0762,8260.0 3878.0762,8310.0 3921.3775,8335.0 3964.6788,8310.0 3964.6788,8360.0 4007.98,8385.0 3964.6788,8410.0 3964.6788,8460.0 3921.3775,8435.0 3878.0762,8460.0 3878.0762,8510.0 3921.3775,8535.0 3878.0762,8560.0 3878.0762,8610.0 3834.7749,8585.0 3791.4737,8610.0 3791.4737,8560.0 3748.1724,8535.0 3704.8711,8560.0 3704.8711,8610.0 3661.5699,8585.0 3618.2686,8610.0 3618.2686,8660.0 3661.5699,8685.0 3618.2686,8710.0 3618.2686,8760.0 3661.5699,8785.0 3704.8711,8760.0 3704.8711,8810.0 3748.1724,8835.0 3704.8711,8860.0 3704.8711,8910.0 3661.5699,8885.0 3618.2686,8910.0 3618.2686,8960.0 3661.5699,8985.0 3618.2686,9010.0 3618.2686,9060.0 3574.9673,9035.0 3531.666,9060.0 3531.666,9010.0 3488.3648,8985.0 3445.0635,9010.0 3445.0635,9060.0 3401.7622,9035.0 3358.461,9060.0 3358.461,9010.0 3315.1597,8985.0 3358.461,8960.0 3358.461,8910.0 3315.1597,8885.0 3271.8584,8910.0 3271.8584,8860.0 3228.5572,8835.0 3185.2559,8860.0 3185.2559,8910.0 3141.9546,8885.0 3098.6533,8910.0 3098.6533,8960.0 3141.9546,8985.0 3098.6533,9010.0 3098.6533,9060.0 3055.3521,9035.0 3012.0508,9060.0 3012.0508,9010.0 2968.7495,8985.0 2925.4483,9010.0 2925.4483,9060.0 2882.147,9035.0 2838.8457,9060.0 2838.8457,9010.0 2795.5445,8985.0 2838.8457,8960.0 2838.8457,8910.0 2795.5445,8885.0 2752.2432,8910.0 2752.2432,8860.0 2708.9419,8835.0 2752.2432,8810.0 2752.2432,8760.0 2795.5445,8785.0 2838.8457,8760.0 2838.8457,8710.0 2795.5445,8685.0 2838.8457,8660.0 2838.8457,8610.0 2795.5445,8585.0 2752.2432,8610.0 2752.2432,8560.0 2708.9419,8535.0 2665.6406,8560.0 2665.6406,8610.0 2622.3394,8585.0 2579.0381,8610.0 2579.0381,8560.0 2535.7368,8535.0 2579.0381,8510.0 2579.0381,8460.0 2535.7368,8435.0 2492.4356,8460.0 2492.4356,8410.0 2449.1343,8385.0 2405.833,8410.0 2405.833,8460.0 2362.5318,8435.0 2319.2305,8460.0 2319.2305,8510.0 2362.5318,8535.0 2319.2305,8560.0 2319.2305,8610.0 2275.9292,8585.0 2232.6279,8610.0 2232.6279,8560.0 2189.3267,8535.0 2146.0254,8560.0 2146.0254,8610.0 2102.7241,8585.0 2059.4229,8610.0 2059.4229,8660.0 2102.7241,8685.0 2059.4229,8710.0 2059.4229,8760.0 2102.7241,8785.0 2146.0254,8760.0 2146.0254,8810.0 2189.3267,8835.0 2146.0254,8860.0 2146.0254,8910.0 2102.7241,8885.0 2059.4229,8910.0 2059.4229,8960.0 2102.7241,8985.0 2059.4229,9010.0 2059.4229,9060.0 2016.1216,9035.0 1972.8203,9060.0 1972.8203,9010.0 1929.5191,8985.0 1886.2178,9010.0 1886.2178,9060.0 1842.9165,9035.0 1799.6152,9060.0 1799.6152,9010.0 1756.314,8985.0 1799.6152,8960.0 1799.6152,8910.0 1756.314,8885.0 1713.0127,8910.0 1713.0127,8860.0 1669.7114,8835.0 1626.4102,8860.0 1626.4102,8910.0 1583.1089,8885.0 1539.8076,8910.0 1539.8076,8960.0 1583.1089,8985.0 1539.8076,9010.0 1539.8076,9060.0 1496.5064,9035.0 1453.2051,9060.0 1453.2051,9010.0 1409.9038,8985.0 1366.6025,9010.0 1366.6025,9060.0 1323.3013,9035.0 1280.0,9060.0 1280.0,9110.0 1323.3013,9135.0 1280.0,9160.0 1280.0,9210.0 1323.3013,9235.0 1366.6025,9210.0 1366.6025,9260.0 1409.9038,9285.0 1366.6025,9310.0 1366.6025,9360.0 1323.3013,9335.0 1280.0,9360.0 1280.0,9410.0 1323.3013,9435.0 1280.0,9460.0 1280.0,9510.0 1323.3013,9535.0 1366.6025,9510.0 1366.6025,9560.0 1409.9038,9585.0 1453.2051,9560.0 1453.2051,9510.0 1496.5064,9535.0 1539.8076,9510.0 1539.8076,9560.0 1583.1089,9585.0 1539.8076,9610.0 1539.8076,9660.0 1583.1089,9685.0 1626.4102,9660.0 1626.4102,9710.0 1669.7114,9735.0 1626.4102,9760.0 1626.4102,9810.0 1583.1089,9785.0 1539.8076,9810.0 1539.8076,9860.0 1583.1089,9885.0 1539.8076,9910.0 1539.8076,9960.0 1496.5064,9935.0 1453.2051,9960.0 1453.2051,9910.0 1409.9038,9885.0 1366.6025,9910.0 1366.6025,9960.0 1323.3013,9935.0 1280.0,9960.0 1280.0,10010.0 1323.3013,10035.0 1280.0,10060.0 1280.0,10110.0 1323.3013,10135.0 1366.6025,10110.0 1366.6025,10160.0 1409.9038,10185.0 1366.6025,10210.0 1366.6025,10260.0 1323.3013,10235.0 1280.0,10260.0 1280.0,10310.0 1323.3013,10335.0 1280.0,10360.0 1280.0,10410.0 1323.3013,10435.0 1366.6025,10410.0 1366.6025,10460.0 1409.9038,10485.0 1453.2051,10460.0 1453.2051,10410.0 1496.5064,10435.0 1539.8076,10410.0 1539.8076,10460.0 1583.1089,10485.0 1539.8076,10510.0 1539.8076,10560.0 1583.1089,10585.0 1626.4102,10560.0 1626.4102,10610.0 1669.7114,10635.0 1713.0127,10610.0 1713.0127,10560.0 1756.314,10585.0 1799.6152,10560.0 1799.6152,10510.0 1756.314,10485.0 1799.6152,10460.0 1799.6152,10410.0 1842.9165,10435.0 1886.2178,10410.0 1886.2178,10460.0 1929.5191,10485.0 1972.8203,10460.0 1972.8203,10410.0 2016.1216,10435.0 2059.4229,10410.0 2059.4229,10460.0 2102.7241,10485.0 2059.4229,10510.0 2059.4229,10560.0 2102.7241,10585.0 2146.0254,10560.0 2146.0254,10610.0 2189.3267,10635.0 2146.0254,10660.0 2146.0254,10710.0 2102.7241,10685.0 2059.4229,10710.0 2059.4229,10760.0 2102.7241,10785.0 2059.4229,10810.0 2059.4229,10860.0 2102.7241,10885.0 2146.0254,10860.0 2146.0254,10910.0 2189.3267,10935.0 2232.6279,10910.0 2232.6279,10860.0 2275.9292,10885.0 2319.2305,10860.0 2319.2305,10910.0 2362.5318,10935.0 2319.2305,10960.0 2319.2305,11010.0 2362.5318,11035.0 2405.833,11010.0 2405.833,11060.0 2449.1343,11085.0 2405.833,11110.0 2405.833,11160.0 2362.5318,11135.0 2319.2305,11160.0 2319.2305,11210.0 2362.5318,11235.0 2319.2305,11260.0 2319.2305,11310.0 2275.9292,11285.0 2232.6279,11310.0 2232.6279,11260.0 2189.3267,11235.0 2146.0254,11260.0 2146.0254,11310.0 2102.7241,11285.0 2059.4229,11310.0 2059.4229,11360.0 2102.7241,11385.0 2059.4229,11410.0 2059.4229,11460.0 2102.7241,11485.0 2146.0254,11460.0 2146.0254,11510.0 2189.3267,11535.0 2146.0254,11560.0 2146.0254,11610.0 2102.7241,11585.0 2059.4229,11610.0 2059.4229,11660.0 2102.7241,11685.0 2059.4229,11710.0 2059.4229,11760.0 2016.1216,11735.0 1972.8203,11760.0 1972.8203,11710.0 1929.5191,11685.0 1886.2178,11710.0 1886.2178,11760.0 1842.9165,11735.0 1799.6152,11760.0 1799.6152,11710.0 1756.314,11685.0 1799.6152,11660.0 1799.6152,11610.0 1756.314,11585.0 1713.0127,11610.0 1713.0127,11560.0 1669.7114,11535.0 1626.4102,11560.0 1626.4102,11610.0 1583.1089,11585.0 1539.8076,11610.0 1539.8076,11660.0 1583.1089,11685.0 1539.8076,11710.0 1539.8076,11760.0 1496.5064,11735.0 1453.2051,11760.0 1453.2051,11710.0 1409.9038,11685.0 1366.6025,11710.0 1366.6025,11760.0 1323.3013,11735.0 1280.0,11760.0 1280.0,11810.0 1323.3013,11835.0 1280.0,11860.0 1280.0,11910.0 1323.3013,11935.0 1366.6025,11910.0 1366.6025,11960.0 1409.9038,11985.0 1366.6025,12010.0 1366.6025,12060.0 1323.3013,12035.0 1280.0,12060.0 1280.0,12110.0 1323.3013,12135.0 1280.0,12160.0 1280.0,12210.0 1323.3013,12235.0 1366.6025,12210.0 1366.6025,12260.0 1409.9038,12285.0 1453.2051,12260.0 1453.2051,12210.0 1496.5064,12235.0 1539.8076,12210.0 1539.8076,12260.0 1583.1089,12285.0 1539.8076,12310.0 1539.8076,12360.0 1583.1089,12385.0 1626.4102,12360.0 1626.4102,12410.0 1669.7114,12435.0 1626.4102,12460.0 1626.4102,12510.0 1583.1089,12485.0 1539.8076,12510.0 1539.8076,12560.0 1583.1089,12585.0 1539.8076,12610.0 1539.8076,12660.0 1496.5064,12635.0 1453.2051,12660.0 1453.2051,12610.0 1409.9038,12585.0 1366.6025,12610.0 1366.6025,12660.0 1323.3013,12635.0 1280.0,12660.0 1280.0,12710.0 1323.3013,12735.0 1280.0,12760.0 1280.0,12810.0 1323.3013,12835.0 1366.6025,12810.0 1366.6025,12860.0 1409.9038,12885.0 1366.6025,12910.0 1366.6025,12960.0 1323.3013,12935.0 1280.0,12960.0 1280.0,13010.0 1323.3013,13035.0 1280.0,13060.0 1280.0,13110.0 1236.6987,13085.0 1193.3975,13110.0 1193.3975,13060.0 1150.0962,13035.0 1106.7949,13060.0 1106.7949,13110.0 1063.4936,13085.0 1020.1924,13110.0 1020.1924,13060.0 976.8911,13035.0 1020.1924,13010.0 1020.1924,12960.0 976.8911,12935.0 933.5898,12960.0 933.5898,12910.0 890.2886,12885.0 846.9873,12910.0 846.9873,12960.0 803.686,12935.0 760.3848,12960.0 760.3848,13010.0 803.686,13035.0 760.3848,13060.0 760.3848,13110.0 717.0835,13085.0 673.7822,13110.0 673.7822,13060.0 630.4809,13035.0 587.1797,13060.0 587.1797,13110.0 543.8784,13085.0 500.5771,13110.0 500.5771,13060.0 457.2759,13035.0 500.5771,13010.0 500.5771,12960.0 457.2759,12935.0 413.9746,12960.0 413.9746,12910.0 370.6733,12885.0 413.9746,12860.0 413.9746,12810.0 457.2759,12835.0 500.5771,12810.0 500.5771,12760.0 457.2759,12735.0 500.5771,12710.0 500.5771,12660.0 457.2759,12635.0 413.9746,12660.0 413.9746,12610.0 370.6733,12585.0 327.3721,12610.0 327.3721,12660.0 284.0708,12635.0 240.7695,12660.0 240.7695,12610.0 197.4682,12585.0 240.7695,12560.0 240.7695,12510.0 197.4682,12485.0 154.167,12510.0 154.167,12460.0 110.8657,12435.0 67.5644,12460.0 67.5644,12510.0 24.2632,12485.0 -19.0381,12510.0 -19.0381,12560.0 24.2632,12585.0 -19.0381,12610.0 -19.0381,12660.0 -62.3394,12635.0 -105.6406,12660.0 -105.6406,12610.0 -148.9419,12585.0 -192.2432,12610.0 -192.2432,12660.0 -235.5445,12635.0 -278.8457,12660.0 -278.8457,12710.0 -235.5445,12735.0 -278.8457,12760.0 -278.8457,12810.0 -235.5445,12835.0 -192.2432,12810.0 -192.2432,12860.0 -148.9419,12885.0 -192.2432,12910.0 -192.2432,12960.0 -235.5445,12935.0 -278.8457,12960.0 -278.8457,13010.0 -235.5445,13035.0 -278.8457,13060.0 -278.8457,13110.0 -322.147,13085.0 -365.4483,13110.0 -365.4483,13060.0 -408.7495,13035.0 -452.0508,13060.0 -452.0508,13110.0 -495.3521,13085.0 -538.6533,13110.0 -538.6533,13060.0 -581.9546,13035.0 -538.6533,13010.0 -538.6533,12960.0 -581.9546,12935.0 -625.2559,12960.0 -625.2559,12910.0 -668.5572,12885.0 -711.8584,12910.0 -711.8584,12960.0 -755.1597,12935.0 -798.461,12960.0 -798.461,13010.0 -755.1597,13035.0 -798.461,13060.0 -798.461,13110.0 -841.7622,13085.0 -885.0635,13110.0 -885.0635,13060.0 -928.3648,13035.0 -971.666,13060.0 -971.666,13110.0 -1014.9673,13085.0 -1058.2686,13110.0 -1058.2686,13060.0 -1101.5699,13035.0 -1058.2686,13010.0 -1058.2686,12960.0 -1101.5699,12935.0 -1144.8711,12960.0 -1144.8711,12910.0 -1188.1724,12885.0 -1144.8711,12860.0 -1144.8711,12810.0 -1101.5699,12835.0 -1058.2686,12810.0 -1058.2686,12760.0 -1101.5699,12735.0 -1058.2686,12710.0 -1058.2686,12660.0 -1101.5699,12635.0 -1144.8711,12660.0 -1144.8711,12610.0 -1188.1724,12585.0 -1231.4737,12610.0 -1231.4737,12660.0 -1274.7749,12635.0 -1318.0762,12660.0 -1318.0762,12610.0 -1361.3775,12585.0 -1318.0762,12560.0 -1318.0762,12510.0 -1361.3775,12485.0 -1404.6788,12510.0 -1404.6788,12460.0 -1447.98,12435.0 -1404.6788,12410.0 -1404.6788,12360.0 -1361.3775,12385.0 -1318.0762,12360.0 -1318.0762,12310.0 -1361.3775,12285.0 -1318.0762,12260.0 -1318.0762,12210.0 -1274.7749,12235.0 -1231.4737,12210.0 -1231.4737,12260.0 -1188.1724,12285.0 -1144.8711,12260.0 -1144.8711,12210.0 -1101.5699,12235.0 -1058.2686,12210.0 -1058.2686,12160.0 -1101.5699,12135.0 -1058.2686,12110.0 -1058.2686,12060.0 -1101.5699,12035.0 -1144.8711,12060.0 -1144.8711,12010.0 -1188.1724,11985.0 -1144.8711,11960.0 -1144.8711,11910.0 -1101.5699,11935.0 -1058.2686,11910.0 -1058.2686,11860.0 -1101.5699,11835.0 -1058.2686,11810.0 -1058.2686,11760.0 -1101.5699,11735.0 -1144.8711,11760.0 -1144.8711,11710.0 -1188.1724,11685.0 -1231.4737,11710.0 -1231.4737,11760.0 -1274.7749,11735.0 -1318.0762,11760.0 -1318.0762,11710.0 -1361.3775,11685.0 -1318.0762,11660.0 -1318.0762,11610.0 -1361.3775,11585.0 -1404.6788,11610.0 -1404.6788,11560.0 -1447.98,11535.0 -1491.2813,11560.0 -1491.2813,11610.0 -1534.5826,11585.0 -1577.8838,11610.0 -1577.8838,11660.0 -1534.5826,11685.0 -1577.8838,11710.0 -1577.8838,11760.0 -1621.1851,11735.0 -1664.4864,11760.0 -1664.4864,11710.0 -1707.7876,11685.0 -1751.0889,11710.0 -1751.0889,11760.0 -1794.3902,11735.0 -1837.6915,11760.0 -1837.6915,11710.0 -1880.9927,11685.0 -1837.6915,11660.0 -1837.6915,11610.0 -1880.9927,11585.0 -1924.294,11610.0 -1924.294,11560.0 -1967.5953,11535.0 -1924.294,11510.0 -1924.294,11460.0 -1880.9927,11485.0 -1837.6915,11460.0 -1837.6915,11410.0 -1880.9927,11385.0 -1837.6915,11360.0 -1837.6915,11310.0 -1880.9927,11285.0 -1924.294,11310.0 -1924.294,11260.0 -1967.5953,11235.0 -2010.8965,11260.0 -2010.8965,11310.0 -2054.1978,11285.0 -2097.4991,11310.0 -2097.4991,11260.0 -2140.8003,11235.0 -2097.4991,11210.0 -2097.4991,11160.0 -2140.8003,11135.0 -2184.1016,11160.0 -2184.1016,11110.0 -2227.4029,11085.0 -2270.7042,11110.0 -2270.7042,11160.0 -2314.0054,11135.0 -2357.3067,11160.0 -2357.3067,11210.0 -2314.0054,11235.0 -2357.3067,11260.0 -2357.3067,11310.0 -2400.608,11285.0 -2443.9092,11310.0 -2443.9092,11260.0 -2487.2105,11235.0 -2530.5118,11260.0 -2530.5118,11310.0 -2573.813,11285.0 -2617.1143,11310.0 -2617.1143,11360.0 -2573.813,11385.0 -2617.1143,11410.0 -2617.1143,11460.0 -2573.813,11485.0 -2530.5118,11460.0 -2530.5118,11510.0 -2487.2105,11535.0 -2530.5118,11560.0 -2530.5118,11610.0 -2573.813,11585.0 -2617.1143,11610.0 -2617.1143,11660.0 -2573.813,11685.0 -2617.1143,11710.0 -2617.1143,11760.0 -2660.4156,11735.0 -2703.7169,11760.0 -2703.7169,11710.0 -2747.0181,11685.0 -2790.3194,11710.0 -2790.3194,11760.0 -2833.6207,11735.0 -2876.9219,11760.0 -2876.9219,11710.0 -2920.2232,11685.0 -2876.9219,11660.0 -2876.9219,11610.0 -2920.2232,11585.0 -2963.5245,11610.0 -2963.5245,11560.0 -3006.8257,11535.0 -3050.127,11560.0 -3050.127,11610.0 -3093.4283,11585.0 -3136.7296,11610.0 -3136.7296,11660.0 -3093.4283,11685.0 -3136.7296,11710.0 -3136.7296,11760.0 -3180.0308,11735.0 -3223.3321,11760.0 -3223.3321,11710.0 -3266.6334,11685.0 -3309.9346,11710.0 -3309.9346,11760.0 -3353.2359,11735.0 -3396.5372,11760.0 -3396.5372,11810.0 -3353.2359,11835.0 -3396.5372,11860.0 -3396.5372,11910.0 -3353.2359,11935.0 -3309.9346,11910.0 -3309.9346,11960.0 -3266.6334,11985.0 -3309.9346,12010.0 -3309.9346,12060.0 -3353.2359,12035.0 -3396.5372,12060.0 -3396.5372,12110.0 -3353.2359,12135.0 -3396.5372,12160.0 -3396.5372,12210.0 -3353.2359,12235.0 -3309.9346,12210.0 -3309.9346,12260.0 -3266.6334,12285.0 -3223.3321,12260.0 -3223.3321,12210.0 -3180.0308,12235.0 -3136.7296,12210.0 -3136.7296,12260.0 -3093.4283,12285.0 -3136.7296,12310.0 -3136.7296,12360.0 -3093.4283,12385.0 -3050.127,12360.0 -3050.127,12410.0 -3006.8257,12435.0 -3050.127,12460.0 -3050.127,12510.0 -3093.4283,12485.0 -3136.7296,12510.0 -3136.7296,12560.0 -3093.4283,12585.0 -3136.7296,12610.0 -3136.7296,12660.0 -3180.0308,12635.0 -3223.3321,12660.0 -3223.3321,12610.0 -3266.6334,12585.0 -3309.9346,12610.0 -3309.9346,12660.0 -3353.2359,12635.0 -3396.5372,12660.0 -3396.5372,12710.0 -3353.2359,12735.0 -3396.5372,12760.0 -3396.5372,12810.0 -3353.2359,12835.0 -3309.9346,12810.0 -3309.9346,12860.0 -3266.6334,12885.0 -3309.9346,12910.0 -3309.9346,12960.0 -3353.2359,12935.0 -3396.5372,12960.0 -3396.5372,13010.0 -3353.2359,13035.0 -3396.5372,13060.0 -3396.5372,13110.0 -3439.8385,13085.0 -3483.1397,13110.0 -3483.1397,13060.0 -3526.441,13035.0 -3569.7423,13060.0 -3569.7423,13110.0 -3613.0435,13085.0 -3656.3448,13110.0 -3656.3448,13060.0 -3699.6461,13035.0 -3656.3448,13010.0 -3656.3448,12960.0 -3699.6461,12935.0 -3742.9473,12960.0 -3742.9473,12910.0 -3786.2486,12885.0 -3829.5499,12910.0 -3829.5499,12960.0 -3872.8512,12935.0 -3916.1524,12960.0 -3916.1524,13010.0 -3872.8512,13035.0 -3916.1524,13060.0 -3916.1524,13110.0 -3959.4537,13085.0 -4002.755,13110.0 -4002.755,13060.0 -4046.0562,13035.0 -4089.3575,13060.0 -4089.3575,13110.0 -4132.6588,13085.0 -4175.96,13110.0 -4175.96,13060.0 -4219.2613,13035.0 -4175.96,13010.0 -4175.96,12960.0 -4219.2613,12935.0 -4262.5626,12960.0 -4262.5626,12910.0 -4305.8639,12885.0 -4262.5626,12860.0 -4262.5626,12810.0 -4219.2613,12835.0 -4175.96,12810.0 -4175.96,12760.0 -4219.2613,12735.0 -4175.96,12710.0 -4175.96,12660.0 -4219.2613,12635.0 -4262.5626,12660.0 -4262.5626,12610.0 -4305.8639,12585.0 -4349.1651,12610.0 -4349.1651,12660.0 -4392.4664,12635.0 -4435.7677,12660.0 -4435.7677,12610.0 -4479.0689,12585.0 -4435.7677,12560.0 -4435.7677,12510.0 -4479.0689,12485.0 -4522.3702,12510.0 -4522.3702,12460.0 -4565.6715,12435.0 -4608.9727,12460.0 -4608.9727,12510.0 -4652.274,12485.0 -4695.5753,12510.0 -4695.5753,12560.0 -4652.274,12585.0 -4695.5753,12610.0 -4695.5753,12660.0 -4738.8766,12635.0 -4782.1778,12660.0 -4782.1778,12610.0 -4825.4791,12585.0 -4868.7804,12610.0 -4868.7804,12660.0 -4912.0816,12635.0 -4955.3829,12660.0 -4955.3829,12710.0 -4912.0816,12735.0 -4955.3829,12760.0 -4955.3829,12810.0 -4912.0816,12835.0 -4868.7804,12810.0 -4868.7804,12860.0 -4825.4791,12885.0 -4868.7804,12910.0 -4868.7804,12960.0 -4912.0816,12935.0 -4955.3829,12960.0 -4955.3829,13010.0 -4912.0816,13035.0 -4955.3829,13060.0 -4955.3829,13110.0 -4998.6842,13085.0 -5041.9854,13110.0 -5041.9854,13060.0 -5085.2867,13035.0 -5128.588,13060.0 -5128.588,13110.0 -5171.8893,13085.0 -5215.1905,13110.0 -5215.1905,13060.0 -5258.4918,13035.0 -5215.1905,13010.0 -5215.1905,12960.0 -5258.4918,12935.0 -5301.7931,12960.0 -5301.7931,12910.0 -5345.0943,12885.0 -5388.3956,12910.0 -5388.3956,12960.0 -5431.6969,12935.0 -5474.9981,12960.0 -5474.9981,13010.0 -5431.6969,13035.0 -5474.9981,13060.0 -5474.9981,13110.0 -5518.2994,13085.0 -5561.6007,13110.0 -5561.6007,13060.0 -5604.902,13035.0 -5648.2032,13060.0 -5648.2032,13110.0 -5691.5045,13085.0 -5734.8058,13110.0 -5734.8058,13060.0 -5778.107,13035.0 -5734.8058,13010.0 -5734.8058,12960.0 -5778.107,12935.0 -5821.4083,12960.0 -5821.4083,12910.0 -5864.7096,12885.0 -5821.4083,12860.0 -5821.4083,12810.0 -5778.107,12835.0 -5734.8058,12810.0 -5734.8058,12760.0 -5778.107,12735.0 -5734.8058,12710.0 -5734.8058,12660.0 -5778.107,12635.0 -5821.4083,12660.0 -5821.4083,12610.0 -5864.7096,12585.0 -5908.0109,12610.0 -5908.0109,12660.0 -5951.3121,12635.0 -5994.6134,12660.0 -5994.6134,12610.0 -6037.9147,12585.0 -5994.6134,12560.0 -5994.6134,12510.0 -6037.9147,12485.0 -6081.2159,12510.0 -6081.2159,12460.0 -6124.5172,12435.0 -6081.2159,12410.0 -6081.2159,12360.0 -6037.9147,12385.0 -5994.6134,12360.0 -5994.6134,12310.0 -6037.9147,12285.0 -5994.6134,12260.0 -5994.6134,12210.0 -5951.3121,12235.0 -5908.0109,12210.0 -5908.0109,12260.0 -5864.7096,12285.0 -5821.4083,12260.0 -5821.4083,12210.0 -5778.107,12235.0 -5734.8058,12210.0 -5734.8058,12160.0 -5778.107,12135.0 -5734.8058,12110.0 -5734.8058,12060.0 -5778.107,12035.0 -5821.4083,12060.0 -5821.4083,12010.0 -5864.7096,11985.0 -5821.4083,11960.0 -5821.4083,11910.0 -5778.107,11935.0 -5734.8058,11910.0 -5734.8058,11860.0 -5778.107,11835.0 -5734.8058,11810.0 -5734.8058,11760.0 -5778.107,11735.0 -5821.4083,11760.0 -5821.4083,11710.0 -5864.7096,11685.0 -5908.0109,11710.0 -5908.0109,11760.0 -5951.3121,11735.0 -5994.6134,11760.0 -5994.6134,11710.0 -6037.9147,11685.0 -5994.6134,11660.0 -5994.6134,11610.0 -6037.9147,11585.0 -6081.2159,11610.0 -6081.2159,11560.0 -6124.5172,11535.0 -6167.8185,11560.0 -6167.8185,11610.0 -6211.1197,11585.0 -6254.421,11610.0 -6254.421,11660.0 -6211.1197,11685.0 -6254.421,11710.0 -6254.421,11760.0 -6297.7223,11735.0 -6341.0236,11760.0 -6341.0236,11710.0 -6384.3248,11685.0 -6427.6261,11710.0 -6427.6261,11760.0 -6470.9274,11735.0 -6514.2286,11760.0 -6514.2286,11710.0 -6557.5299,11685.0 -6514.2286,11660.0 -6514.2286,11610.0 -6557.5299,11585.0 -6600.8312,11610.0 -6600.8312,11560.0 -6644.1324,11535.0 -6600.8312,11510.0 -6600.8312,11460.0 -6557.5299,11485.0 -6514.2286,11460.0 -6514.2286,11410.0 -6557.5299,11385.0 -6514.2286,11360.0 -6514.2286,11310.0 -6557.5299,11285.0 -6600.8312,11310.0 -6600.8312,11260.0 -6644.1324,11235.0 -6687.4337,11260.0 -6687.4337,11310.0 -6730.735,11285.0 -6774.0363,11310.0 -6774.0363,11260.0 -6817.3375,11235.0 -6774.0363,11210.0 -6774.0363,11160.0 -6817.3375,11135.0 -6860.6388,11160.0 -6860.6388,11110.0 -6903.9401,11085.0 -6860.6388,11060.0 -6860.6388,11010.0 -6817.3375,11035.0 -6774.0363,11010.0 -6774.0363,10960.0 -6817.3375,10935.0 -6774.0363,10910.0 -6774.0363,10860.0 -6730.735,10885.0 -6687.4337,10860.0 -6687.4337,10910.0 -6644.1324,10935.0 -6600.8312,10910.0 -6600.8312,10860.0 -6557.5299,10885.0 -6514.2286,10860.0 -6514.2286,10810.0 -6557.5299,10785.0 -6514.2286,10760.0 -6514.2286,10710.0 -6557.5299,10685.0 -6600.8312,10710.0 -6600.8312,10660.0 -6644.1324,10635.0 -6600.8312,10610.0 -6600.8312,10560.0 -6557.5299,10585.0 -6514.2286,10560.0 -6514.2286,10510.0 -6557.5299,10485.0 -6514.2286,10460.0 -6514.2286,10410.0 -6470.9274,10435.0 -6427.6261,10410.0 -6427.6261,10460.0 -6384.3248,10485.0 -6341.0236,10460.0 -6341.0236,10410.0 -6297.7223,10435.0 -6254.421,10410.0 -6254.421,10460.0 -6211.1197,10485.0 -6254.421,10510.0 -6254.421,10560.0 -6211.1197,10585.0 -6167.8185,10560.0 -6167.8185,10610.0 -6124.5172,10635.0 -6081.2159,10610.0 -6081.2159,10560.0 -6037.9147,10585.0 -5994.6134,10560.0 -5994.6134,10510.0 -6037.9147,10485.0 -5994.6134,10460.0 -5994.6134,10410.0 -5951.3121,10435.0 -5908.0109,10410.0 -5908.0109,10460.0 -5864.7096,10485.0 -5821.4083,10460.0 -5821.4083,10410.0 -5778.107,10435.0 -5734.8058,10410.0 -5734.8058,10360.0 -5778.107,10335.0 -5734.8058,10310.0 -5734.8058,10260.0 -5778.107,10235.0 -5821.4083,10260.0 -5821.4083,10210.0 -5864.7096,10185.0 -5821.4083,10160.0 -5821.4083,10110.0 -5778.107,10135.0 -5734.8058,10110.0 -5734.8058,10060.0 -5778.107,10035.0 -5734.8058,10010.0 -5734.8058,9960.0 -5778.107,9935.0 -5821.4083,9960.0 -5821.4083,9910.0 -5864.7096,9885.0 -5908.0109,9910.0 -5908.0109,9960.0 -5951.3121,9935.0 -5994.6134,9960.0 -5994.6134,9910.0 -6037.9147,9885.0 -5994.6134,9860.0 -5994.6134,9810.0 -6037.9147,9785.0 -6081.2159,9810.0 -6081.2159,9760.0 -6124.5172,9735.0 -6081.2159,9710.0 -6081.2159,9660.0 -6037.9147,9685.0 -5994.6134,9660.0 -5994.6134,9610.0 -6037.9147,9585.0 -5994.6134,9560.0 -5994.6134,9510.0 -5951.3121,9535.0 -5908.0109,9510.0 -5908.0109,9560.0 -5864.7096,9585.0 -5821.4083,9560.0 -5821.4083,9510.0 -5778.107,9535.0 -5734.8058,9510.0 -5734.8058,9460.0 -5778.107,9435.0 -5734.8058,9410.0 -5734.8058,9360.0 -5778.107,9335.0 -5821.4083,9360.0 -5821.4083,9310.0 -5864.7096,9285.0 -5821.4083,9260.0 -5821.4083,9210.0 -5778.107,9235.0 -5734.8058,9210.0 -5734.8058,9160.0 -5778.107,9135.0 -5734.8058,9110.0 -5734.8058,9060.0 -5778.107,9035.0 -5821.4083,9060.0 -5821.4083,9010.0 -5864.7096,8985.0 -5908.0109,9010.0 -5908.0109,9060.0 -5951.3121,9035.0 -5994.6134,9060.0 -5994.6134,9010.0 -6037.9147,8985.0 -5994.6134,8960.0 -5994.6134,8910.0 -6037.9147,8885.0 -6081.2159,8910.0 -6081.2159,8860.0 -6124.5172,8835.0 -6167.8185,8860.0 -6167.8185,8910.0 -6211.1197,8885.0 -6254.421,8910.0 -6254.421,8960.0 -6211.1197,8985.0 -6254.421,9010.0 -6254.421,9060.0 -6297.7223,9035.0 -6341.0236,9060.0 -6341.0236,9010.0 -6384.3248,8985.0 -6427.6261,9010.0 -6427.6261,9060.0 -6470.9274,9035.0 -6514.2286,9060.0 -6514.2286,9010.0 -6557.5299,8985.0 -6514.2286,8960.0 -6514.2286,8910.0 -6557.5299,8885.0 -6600.8312,8910.0 -6600.8312,8860.0 -6644.1324,8835.0 -6600.8312,8810.0 -6600.8312,8760.0 -6557.5299,8785.0 -6514.2286,8760.0 -6514.2286,8710.0 -6557.5299,8685.0 -6514.2286,8660.0 -6514.2286,8610.0 -6557.5299,8585.0 -6600.8312,8610.0 -6600.8312,8560.0 -6644.1324,8535.0 -6687.4337,8560.0 -6687.4337,8610.0 -6730.735,8585.0 -6774.0363,8610.0 -6774.0363,8560.0 -6817.3375,8535.0 -6774.0363,8510.0 -6774.0363,8460.0 -6817.3375,8435.0 -6860.6388,8460.0 -6860.6388,8410.0 -6903.9401,8385.0 -6947.2413,8410.0 -6947.2413,8460.0 -6990.5426,8435.0 -7033.8439,8460.0 -7033.8439,8510.0 -6990.5426,8535.0 -7033.8439,8560.0 -7033.8439,8610.0 -7077.1451,8585.0 -7120.4464,8610.0 -7120.4464,8560.0 -7163.7477,8535.0 -7207.049,8560.0 -7207.049,8610.0 -7250.3502,8585.0 -7293.6515,8610.0 -7293.6515,8660.0 -7250.3502,8685.0 -7293.6515,8710.0 -7293.6515,8760.0 -7250.3502,8785.0 -7207.049,8760.0 -7207.049,8810.0 -7163.7477,8835.0 -7207.049,8860.0 -7207.049,8910.0 -7250.3502,8885.0 -7293.6515,8910.0 -7293.6515,8960.0 -7250.3502,8985.0 -7293.6515,9010.0 -7293.6515,9060.0 -7336.9528,9035.0 -7380.254,9060.0 -7380.254,9010.0 -7423.5553,8985.0 -7466.8566,9010.0 -7466.8566,9060.0 -7510.1578,9035.0 -7553.4591,9060.0 -7553.4591,9010.0 -7596.7604,8985.0 -7553.4591,8960.0 -7553.4591,8910.0 -7596.7604,8885.0 -7640.0617,8910.0 -7640.0617,8860.0 -7683.3629,8835.0 -7726.6642,8860.0 -7726.6642,8910.0 -7769.9655,8885.0 -7813.2667,8910.0 -7813.2667,8960.0 -7769.9655,8985.0 -7813.2667,9010.0 -7813.2667,9060.0 -7856.568,9035.0 -7899.8693,9060.0 -7899.8693,9010.0 -7943.1706,8985.0 -7986.4718,9010.0 -7986.4718,9060.0 -8029.7731,9035.0 -8073.0744,9060.0 -8073.0744,9010.0 -8116.3756,8985.0 -8073.0744,8960.0 -8073.0744,8910.0 -8116.3756,8885.0 -8159.6769,8910.0 -8159.6769,8860.0 -8202.9782,8835.0 -8159.6769,8810.0 -8159.6769,8760.0 -8116.3756,8785.0 -8073.0744,8760.0 -8073.0744,8710.0 -8116.3756,8685.0 -8073.0744,8660.0 -8073.0744,8610.0 -8116.3756,8585.0 -8159.6769,8610.0 -8159.6769,8560.0 -8202.9782,8535.0 -8246.2794,8560.0 -8246.2794,8610.0 -8289.5807,8585.0 -8332.882,8610.0 -8332.882,8560.0 -8376.1833,8535.0 -8332.882,8510.0 -8332.882,8460.0 -8376.1833,8435.0 -8419.4845,8460.0 -8419.4845,8410.0 -8462.7858,8385.0 -8419.4845,8360.0 -8419.4845,8310.0 -8376.1833,8335.0 -8332.882,8310.0 -8332.882,8260.0 -8376.1833,8235.0 -8332.882,8210.0 -8332.882,8160.0 -8289.5807,8185.0 -8246.2794,8160.0 -8246.2794,8210.0 -8202.9782,8235.0 -8159.6769,8210.0 -8159.6769,8160.0 -8116.3756,8185.0 -8073.0744,8160.0 -8073.0744,8110.0 -8116.3756,8085.0 -8073.0744,8060.0 -8073.0744,8010.0 -8116.3756,7985.0 -8159.6769,8010.0 -8159.6769,7960.0 -8202.9782,7935.0 -8159.6769,7910.0 -8159.6769,7860.0 -8116.3756,7885.0 -8073.0744,7860.0 -8073.0744,7810.0 -8116.3756,7785.0 -8073.0744,7760.0 -8073.0744,7710.0 -8116.3756,7685.0 -8159.6769,7710.0 -8159.6769,7660.0 -8202.9782,7635.0 -8246.2794,7660.0 -8246.2794,7710.0 -8289.5807,7685.0 -8332.882,7710.0 -8332.882,7660.0 -8376.1833,7635.0 -8332.882,7610.0 -8332.882,7560.0 -8376.1833,7535.0 -8419.4845,7560.0 -8419.4845,7510.0 -8462.7858,7485.0 -8506.0871,7510.0 -8506.0871,7560.0 -8549.3883,7535.0 -8592.6896,7560.0 -8592.6896,7610.0 -8549.3883,7635.0 -8592.6896,7660.0 -8592.6896,7710.0 -8635.9909,7685.0 -8679.2921,7710.0 -8679.2921,7660.0 -8722.5934,7635.0 -8765.8947,7660.0 -8765.8947,7710.0 -8809.196,7685.0 -8852.4972,7710.0 -8852.4972,7660.0 -8895.7985,7635.0 -8852.4972,7610.0 -8852.4972,7560.0 -8895.7985,7535.0 -8939.0998,7560.0 -8939.0998,7510.0 -8982.401,7485.0 -8939.0998,7460.0 -8939.0998,7410.0 -8895.7985,7435.0 -8852.4972,7410.0 -8852.4972,7360.0 -8895.7985,7335.0 -8852.4972,7310.0 -8852.4972,7260.0 -8895.7985,7235.0 -8939.0998,7260.0 -8939.0998,7210.0 -8982.401,7185.0 -9025.7023,7210.0 -9025.7023,7260.0 -9069.0036,7235.0 -9112.3048,7260.0 -9112.3048,7210.0 -9155.6061,7185.0 -9112.3048,7160.0 -9112.3048,7110.0 -9155.6061,7085.0 -9198.9074,7110.0 -9198.9074,7060.0 -9242.2087,7035.0 -9198.9074,7010.0 -9198.9074,6960.0 -9155.6061,6985.0 -9112.3048,6960.0 -9112.3048,6910.0 -9155.6061,6885.0 -9112.3048,6860.0 -9112.3048,6810.0 -9069.0036,6835.0 -9025.7023,6810.0 -9025.7023,6860.0 -8982.401,6885.0 -8939.0998,6860.0 -8939.0998,6810.0 -8895.7985,6835.0 -8852.4972,6810.0 -8852.4972,6760.0 -8895.7985,6735.0 -8852.4972,6710.0 -8852.4972,6660.0 -8895.7985,6635.0 -8939.0998,6660.0 -8939.0998,6610.0 -8982.401,6585.0 -8939.0998,6560.0 -8939.0998,6510.0 -8895.7985,6535.0 -8852.4972,6510.0 -8852.4972,6460.0 -8895.7985,6435.0 -8852.4972,6410.0 -8852.4972,6360.0 -8809.196,6385.0 -8765.8947,6360.0 -8765.8947,6410.0 -8722.5934,6435.0 -8679.2921,6410.0 -8679.2921,6360.0 -8635.9909,6385.0 -8592.6896,6360.0 -8592.6896,6410.0 -8549.3883,6435.0 -8592.6896,6460.0 -8592.6896,6510.0 -8549.3883,6535.0 -8506.0871,6510.0 -8506.0871,6560.0 -8462.7858,6585.0 -8419.4845,6560.0 -8419.4845,6510.0 -8376.1833,6535.0 -8332.882,6510.0 -8332.882,6460.0 -8376.1833,6435.0 -8332.882,6410.0 -8332.882,6360.0 -8289.5807,6385.0 -8246.2794,6360.0 -8246.2794,6410.0 -8202.9782,6435.0 -8159.6769,6410.0 -8159.6769,6360.0 -8116.3756,6385.0 -8073.0744,6360.0 -8073.0744,6310.0 -8116.3756,6285.0 -8073.0744,6260.0 -8073.0744,6210.0 -8116.3756,6185.0 -8159.6769,6210.0 -8159.6769,6160.0 -8202.9782,6135.0 -8159.6769,6110.0 -8159.6769,6060.0 -8116.3756,6085.0 -8073.0744,6060.0 -8073.0744,6010.0 -8116.3756,5985.0 -8073.0744,5960.0 -8073.0744,5910.0 -8116.3756,5885.0 -8159.6769,5910.0 -8159.6769,5860.0 -8202.9782,5835.0 -8246.2794,5860.0 -8246.2794,5910.0 -8289.5807,5885.0 -8332.882,5910.0 -8332.882,5860.0 -8376.1833,5835.0 -8332.882,5810.0 -8332.882,5760.0 -8376.1833,5735.0 -8419.4845,5760.0 -8419.4845,5710.0 -8462.7858,5685.0 -8419.4845,5660.0 -8419.4845,5610.0 -8376.1833,5635.0 -8332.882,5610.0 -8332.882,5560.0 -8376.1833,5535.0 -8332.882,5510.0 -8332.882,5460.0 -8289.5807,5485.0 -8246.2794,5460.0 -8246.2794,5510.0 -8202.9782,5535.0 -8159.6769,5510.0 -8159.6769,5460.0 -8116.3756,5485.0 -8073.0744,5460.0 -8073.0744,5410.0 -8116.3756,5385.0 -8073.0744,5360.0 -8073.0744,5310.0 -8116.3756,5285.0 -8159.6769,5310.0 -8159.6769,5260.0 -8202.9782,5235.0 -8159.6769,5210.0 -8159.6769,5160.0 -8116.3756,5185.0 -8073.0744,5160.0 -8073.0744,5110.0 -8116.3756,5085.0 -8073.0744,5060.0 -8073.0744,5010.0 -8029.7731,5035.0 -7986.4718,5010.0 -7986.4718,5060.0 -7943.1706,5085.0 -7899.8693,5060.0 -7899.8693,5010.0 -7856.568,5035.0 -7813.2667,5010.0 -7813.2667,5060.0 -7769.9655,5085.0 -7813.2667,5110.0 -7813.2667,5160.0 -7769.9655,5185.0 -7726.6642,5160.0 -7726.6642,5210.0 -7683.3629,5235.0 -7640.0617,5210.0 -7640.0617,5160.0 -7596.7604,5185.0 -7553.4591,5160.0 -7553.4591,5110.0 -7596.7604,5085.0 -7553.4591,5060.0 -7553.4591,5010.0 -7510.1578,5035.0 -7466.8566,5010.0 -7466.8566,5060.0 -7423.5553,5085.0 -7380.254,5060.0 -7380.254,5010.0 -7336.9528,5035.0 -7293.6515,5010.0 -7293.6515,5060.0 -7250.3502,5085.0 -7293.6515,5110.0 -7293.6515,5160.0 -7250.3502,5185.0 -7207.049,5160.0 -7207.049,5210.0 -7163.7477,5235.0 -7207.049,5260.0 -7207.049,5310.0 -7250.3502,5285.0 -7293.6515,5310.0 -7293.6515,5360.0 -7250.3502,5385.0 -7293.6515,5410.0 -7293.6515,5460.0 -7250.3502,5485.0 -7207.049,5460.0 -7207.049,5510.0 -7163.7477,5535.0 -7120.4464,5510.0 -7120.4464,5460.0 -7077.1451,5485.0 -7033.8439,5460.0 -7033.8439,5510.0 -6990.5426,5535.0 -7033.8439,5560.0 -7033.8439,5610.0 -6990.5426,5635.0 -6947.2413,5610.0 -6947.2413,5660.0 -6903.9401,5685.0 -6860.6388,5660.0 -6860.6388,5610.0 -6817.3375,5635.0 -6774.0363,5610.0 -6774.0363,5560.0 -6817.3375,5535.0 -6774.0363,5510.0 -6774.0363,5460.0 -6730.735,5485.0 -6687.4337,5460.0 -6687.4337,5510.0 -6644.1324,5535.0 -6600.8312,5510.0 -6600.8312,5460.0 -6557.5299,5485.0 -6514.2286,5460.0 -6514.2286,5410.0 -6557.5299,5385.0 -6514.2286,5360.0 -6514.2286,5310.0 -6557.5299,5285.0 -6600.8312,5310.0 -6600.8312,5260.0 -6644.1324,5235.0 -6600.8312,5210.0 -6600.8312,5160.0 -6557.5299,5185.0 -6514.2286,5160.0 -6514.2286,5110.0 -6557.5299,5085.0 -6514.2286,5060.0 -6514.2286,5010.0 -6470.9274,5035.0 -6427.6261,5010.0 -6427.6261,5060.0 -6384.3248,5085.0 -6341.0236,5060.0 -6341.0236,5010.0 -6297.7223,5035.0 -6254.421,5010.0 -6254.421,5060.0 -6211.1197,5085.0 -6254.421,5110.0 -6254.421,5160.0 -6211.1197,5185.0 -6167.8185,5160.0 -6167.8185,5210.0 -6124.5172,5235.0 -6081.2159,5210.0 -6081.2159,5160.0 -6037.9147,5185.0 -5994.6134,5160.0 -5994.6134,5110.0 -6037.9147,5085.0 -5994.6134,5060.0 -5994.6134,5010.0 -5951.3121,5035.0 -5908.0109,5010.0 -5908.0109,5060.0 -5864.7096,5085.0 -5821.4083,5060.0 -5821.4083,5010.0 -5778.107,5035.0 -5734.8058,5010.0 -5734.8058,4960.0 -5778.107,4935.0 -5734.8058,4910.0 -5734.8058,4860.0 -5778.107,4835.0 -5821.4083,4860.0 -5821.4083,4810.0 -5864.7096,4785.0 -5821.4083,4760.0 -5821.4083,4710.0 -5778.107,4735.0 -5734.8058,4710.0 -5734.8058,4660.0 -5778.107,4635.0 -5734.8058,4610.0 -5734.8058,4560.0 -5778.107,4535.0 -5821.4083,4560.0 -5821.4083,4510.0 -5864.7096,4485.0 -5908.0109,4510.0 -5908.0109,4560.0 -5951.3121,4535.0 -5994.6134,4560.0 -5994.6134,4510.0 -6037.9147,4485.0 -5994.6134,4460.0 -5994.6134,4410.0 -6037.9147,4385.0 -6081.2159,4410.0 -6081.2159,4360.0 -6124.5172,4335.0 -6081.2159,4310.0 -6081.2159,4260.0 -6037.9147,4285.0 -5994.6134,4260.0 -5994.6134,4210.0 -6037.9147,4185.0 -5994.6134,4160.0 -5994.6134,4110.0 -5951.3121,4135.0 -5908.0109,4110.0 -5908.0109,4160.0 -5864.7096,4185.0 -5821.4083,4160.0 -5821.4083,4110.0 -5778.107,4135.0 -5734.8058,4110.0 -5734.8058,4060.0 -5778.107,4035.0 -5734.8058,4010.0 -5734.8058,3960.0 -5778.107,3935.0 -5821.4083,3960.0 -5821.4083,3910.0 -5864.7096,3885.0 -5821.4083,3860.0 -5821.4083,3810.0 -5778.107,3835.0 -5734.8058,3810.0 -5734.8058,3760.0 -5778.107,3735.0 -5734.8058,3710.0 -5734.8058,3660.0 -5778.107,3635.0 -5821.4083,3660.0 -5821.4083,3610.0 -5864.7096,3585.0 -5908.0109,3610.0 -5908.0109,3660.0 -5951.3121,3635.0 -5994.6134,3660.0 -5994.6134,3610.0 -6037.9147,3585.0 -5994.6134,3560.0 -5994.6134,3510.0 -6037.9147,3485.0 -6081.2159,3510.0 -6081.2159,3460.0 -6124.5172,3435.0 -6167.8185,3460.0 -6167.8185,3510.0 -6211.1197,3485.0 -6254.421,3510.0 -6254.421,3560.0 -6211.1197,3585.0 -6254.421,3610.0 -6254.421,3660.0 -6297.7223,3635.0 -6341.0236,3660.0 -6341.0236,3610.0 -6384.3248,3585.0 -6427.6261,3610.0 -6427.6261,3660.0 -6470.9274,3635.0 -6514.2286,3660.0 -6514.2286,3610.0 -6557.5299,3585.0 -6514.2286,3560.0 -6514.2286,3510.0 -6557.5299,3485.0 -6600.8312,3510.0 -6600.8312,3460.0 -6644.1324,3435.0 -6600.8312,3410.0 -6600.8312,3360.0 -6557.5299,3385.0 -6514.2286,3360.0 -6514.2286,3310.0 -6557.5299,3285.0 -6514.2286,3260.0 -6514.2286,3210.0 -6557.5299,3185.0 -6600.8312,3210.0 -6600.8312,3160.0 -6644.1324,3135.0 -6687.4337,3160.0 -6687.4337,3210.0 -6730.735,3185.0 -6774.0363,3210.0 -6774.0363,3160.0 -6817.3375,3135.0 -6774.0363,3110.0 -6774.0363,3060.0 -6817.3375,3035.0 -6860.6388,3060.0 -6860.6388,3010.0 -6903.9401,2985.0 -6860.6388,2960.0 -6860.6388,2910.0 -6817.3375,2935.0 -6774.0363,2910.0 -6774.0363,2860.0 -6817.3375,2835.0 -6774.0363,2810.0 -6774.0363,2760.0 -6730.735,2785.0 -6687.4337,2760.0 -6687.4337,2810.0 -6644.1324,2835.0 -6600.8312,2810.0 -6600.8312,2760.0 -6557.5299,2785.0 -6514.2286,2760.0 -6514.2286,2710.0 -6557.5299,2685.0 -6514.2286,2660.0 -6514.2286,2610.0 -6557.5299,2585.0 -6600.8312,2610.0 -6600.8312,2560.0 -6644.1324,2535.0 -6600.8312,2510.0 -6600.8312,2460.0 -6557.5299,2485.0 -6514.2286,2460.0 -6514.2286,2410.0 -6557.5299,2385.0 -6514.2286,2360.0 -6514.2286,2310.0 -6470.9274,2335.0 -6427.6261,2310.0 -6427.6261,2360.0 -6384.3248,2385.0 -6341.0236,2360.0 -6341.0236,2310.0 -6297.7223,2335.0 -6254.421,2310.0 -6254.421,2360.0 -6211.1197,2385.0 -6254.421,2410.0 -6254.421,2460.0 -6211.1197,2485.0 -6167.8185,2460.0 -6167.8185,2510.0 -6124.5172,2535.0 -6081.2159,2510.0 -6081.2159,2460.0 -6037.9147,2485.0 -5994.6134,2460.0 -5994.6134,2410.0 -6037.9147,2385.0 -5994.6134,2360.0 -5994.6134,2310.0 -5951.3121,2335.0 -5908.0109,2310.0 -5908.0109,2360.0 -5864.7096,2385.0 -5821.4083,2360.0 -5821.4083,2310.0 -5778.107,2335.0 -5734.8058,2310.0 -5734.8058,2260.0 -5778.107,2235.0 -5734.8058,2210.0 -5734.8058,2160.0 -5778.107,2135.0 -5821.4083,2160.0 -5821.4083,2110.0 -5864.7096,2085.0 -5821.4083,2060.0 -5821.4083,2010.0 -5778.107,2035.0 -5734.8058,2010.0 -5734.8058,1960.0 -5778.107,1935.0 -5734.8058,1910.0 -5734.8058,1860.0 -5778.107,1835.0 -5821.4083,1860.0 -5821.4083,1810.0 -5864.7096,1785.0 -5908.0109,1810.0 -5908.0109,1860.0 -5951.3121,1835.0 -5994.6134,1860.0 -5994.6134,1810.0 -6037.9147,1785.0 -5994.6134,1760.0 -5994.6134,1710.0 -6037.9147,1685.0 -6081.2159,1710.0 -6081.2159,1660.0 -6124.5172,1635.0 -6081.2159,1610.0 -6081.2159,1560.0 -6037.9147,1585.0 -5994.6134,1560.0 -5994.6134,1510.0 -6037.9147,1485.0 -5994.6134,1460.0 -5994.6134,1410.0 -5951.3121,1435.0 -5908.0109,1410.0 -5908.0109,1460.0 -5864.7096,1485.0 -5821.4083,1460.0 -5821.4083,1410.0 -5778.107,1435.0 -5734.8058,1410.0 -5734.8058,1360.0 -5778.107,1335.0 -5734.8058,1310.0 -5734.8058,1260.0 -5778.107,1235.0 -5821.4083,1260.0 -5821.4083,1210.0 -5864.7096,1185.0 -5821.4083,1160.0 -5821.4083,1110.0 -5778.107,1135.0 -5734.8058,1110.0 -5734.8058,1060.0 -5778.107,1035.0 -5734.8058,1010.0 -5734.8058,960.0 -5691.5045,985.0 -5648.2032,960.0 -5648.2032,1010.0 -5604.902,1035.0 -5561.6007,1010.0 -5561.6007,960.0 -5518.2994,985.0 -5474.9981,960.0 -5474.9981,1010.0 -5431.6969,1035.0 -5474.9981,1060.0 -5474.9981,1110.0 -5431.6969,1135.0 -5388.3956,1110.0 -5388.3956,1160.0 -5345.0943,1185.0 -5301.7931,1160.0 -5301.7931,1110.0 -5258.4918,1135.0 -5215.1905,1110.0 -5215.1905,1060.0 -5258.4918,1035.0 -5215.1905,1010.0 -5215.1905,960.0 -5171.8893,985.0 -5128.588,960.0 -5128.588,1010.0 -5085.2867,1035.0 -5041.9854,1010.0 -5041.9854,960.0 -4998.6842,985.0 -4955.3829,960.0 -4955.3829,1010.0 -4912.0816,1035.0 -4955.3829,1060.0 -4955.3829,1110.0 -4912.0816,1135.0 -4868.7804,1110.0 -4868.7804,1160.0 -4825.4791,1185.0 -4868.7804,1210.0 -4868.7804,1260.0 -4912.0816,1235.0 -4955.3829,1260.0 -4955.3829,1310.0 -4912.0816,1335.0 -4955.3829,1360.0 -4955.3829,1410.0 -4912.0816,1435.0 -4868.7804,1410.0 -4868.7804,1460.0 -4825.4791,1485.0 -4782.1778,1460.0 -4782.1778,1410.0 -4738.8766,1435.0 -4695.5753,1410.0 -4695.5753,1460.0 -4652.274,1485.0 -4695.5753,1510.0 -4695.5753,1560.0 -4652.274,1585.0 -4608.9727,1560.0 -4608.9727,1610.0 -4565.6715,1635.0 -4522.3702,1610.0 -4522.3702,1560.0 -4479.0689,1585.0 -4435.7677,1560.0 -4435.7677,1510.0 -4479.0689,1485.0 -4435.7677,1460.0 -4435.7677,1410.0 -4392.4664,1435.0 -4349.1651,1410.0 -4349.1651,1460.0 -4305.8639,1485.0 -4262.5626,1460.0 -4262.5626,1410.0 -4219.2613,1435.0 -4175.96,1410.0 -4175.96,1360.0 -4219.2613,1335.0 -4175.96,1310.0 -4175.96,1260.0 -4219.2613,1235.0 -4262.5626,1260.0 -4262.5626,1210.0 -4305.8639,1185.0 -4262.5626,1160.0 -4262.5626,1110.0 -4219.2613,1135.0 -4175.96,1110.0 -4175.96,1060.0 -4219.2613,1035.0 -4175.96,1010.0 -4175.96,960.0 -4132.6588,985.0 -4089.3575,960.0 -4089.3575,1010.0 -4046.0562,1035.0 -4002.755,1010.0 -4002.755,960.0 -3959.4537,985.0 -3916.1524,960.0 -3916.1524,1010.0 -3872.8512,1035.0 -3916.1524,1060.0 -3916.1524,1110.0 -3872.8512,1135.0 -3829.5499,1110.0 -3829.5499,1160.0 -3786.2486,1185.0 -3742.9473,1160.0 -3742.9473,1110.0 -3699.6461,1135.0 -3656.3448,1110.0 -3656.3448,1060.0 -3699.6461,1035.0 -3656.3448,1010.0 -3656.3448,960.0 -3613.0435,985.0 -3569.7423,960.0 -3569.7423,1010.0 -3526.441,1035.0 -3483.1397,1010.0 -3483.1397,960.0 -3439.8385,985.0 -3396.5372,960.0 -3396.5372,1010.0 -3353.2359,1035.0 -3396.5372,1060.0 -3396.5372,1110.0 -3353.2359,1135.0 -3309.9346,1110.0 -3309.9346,1160.0 -3266.6334,1185.0 -3309.9346,1210.0 -3309.9346,1260.0 -3353.2359,1235.0 -3396.5372,1260.0 -3396.5372,1310.0 -3353.2359,1335.0 -3396.5372,1360.0 -3396.5372,1410.0 -3353.2359,1435.0 -3309.9346,1410.0 -3309.9346,1460.0 -3266.6334,1485.0 -3223.3321,1460.0 -3223.3321,1410.0 -3180.0308,1435.0 -3136.7296,1410.0 -3136.7296,1460.0 -3093.4283,1485.0 -3136.7296,1510.0 -3136.7296,1560.0 -3093.4283,1585.0 -3050.127,1560.0 -3050.127,1610.0 -3006.8257,1635.0 -3050.127,1660.0 -3050.127,1710.0 -3093.4283,1685.0 -3136.7296,1710.0 -3136.7296,1760.0 -3093.4283,1785.0 -3136.7296,1810.0 -3136.7296,1860.0 -3180.0308,1835.0 -3223.3321,1860.0 -3223.3321,1810.0 -3266.6334,1785.0 -3309.9346,1810.0 -3309.9346,1860.0 -3353.2359,1835.0 -3396.5372,1860.0 -3396.5372,1910.0 -3353.2359,1935.0 -3396.5372,1960.0 -3396.5372,2010.0 -3353.2359,2035.0 -3309.9346,2010.0 -3309.9346,2060.0 -3266.6334,2085.0 -3309.9346,2110.0 -3309.9346,2160.0 -3353.2359,2135.0 -3396.5372,2160.0 -3396.5372,2210.0 -3353.2359,2235.0 -3396.5372,2260.0 -3396.5372,2310.0 -3353.2359,2335.0 -3309.9346,2310.0 -3309.9346,2360.0 -3266.6334,2385.0 -3223.3321,2360.0 -3223.3321,2310.0 -3180.0308,2335.0 -3136.7296,2310.0 -3136.7296,2360.0 -3093.4283,2385.0 -3136.7296,2410.0 -3136.7296,2460.0 -3093.4283,2485.0 -3050.127,2460.0 -3050.127,2510.0 -3006.8257,2535.0 -2963.5245,2510.0 -2963.5245,2460.0 -2920.2232,2485.0 -2876.9219,2460.0 -2876.9219,2410.0 -2920.2232,2385.0 -2876.9219,2360.0 -2876.9219,2310.0 -2833.6207,2335.0 -2790.3194,2310.0 -2790.3194,2360.0 -2747.0181,2385.0 -2703.7169,2360.0 -2703.7169,2310.0 -2660.4156,2335.0 -2617.1143,2310.0 -2617.1143,2360.0 -2573.813,2385.0 -2617.1143,2410.0 -2617.1143,2460.0 -2573.813,2485.0 -2530.5118,2460.0 -2530.5118,2510.0 -2487.2105,2535.0 -2530.5118,2560.0 -2530.5118,2610.0 -2573.813,2585.0 -2617.1143,2610.0 -2617.1143,2660.0 -2573.813,2685.0 -2617.1143,2710.0 -2617.1143,2760.0 -2573.813,2785.0 -2530.5118,2760.0 -2530.5118,2810.0 -2487.2105,2835.0 -2443.9092,2810.0 -2443.9092,2760.0 -2400.608,2785.0 -2357.3067,2760.0 -2357.3067,2810.0 -2314.0054,2835.0 -2357.3067,2860.0 -2357.3067,2910.0 -2314.0054,2935.0 -2270.7042,2910.0 -2270.7042,2960.0 -2227.4029,2985.0 -2184.1016,2960.0 -2184.1016,2910.0 -2140.8003,2935.0 -2097.4991,2910.0 -2097.4991,2860.0 -2140.8003,2835.0 -2097.4991,2810.0 -2097.4991,2760.0 -2054.1978,2785.0 -2010.8965,2760.0 -2010.8965,2810.0 -1967.5953,2835.0 -1924.294,2810.0 -1924.294,2760.0 -1880.9927,2785.0 -1837.6915,2760.0 -1837.6915,2710.0 -1880.9927,2685.0 -1837.6915,2660.0 -1837.6915,2610.0 -1880.9927,2585.0 -1924.294,2610.0 -1924.294,2560.0 -1967.5953,2535.0 -1924.294,2510.0 -1924.294,2460.0 -1880.9927,2485.0 -1837.6915,2460.0 -1837.6915,2410.0 -1880.9927,2385.0 -1837.6915,2360.0 -1837.6915,2310.0 -1794.3902,2335.0 -1751.0889,2310.0 -1751.0889,2360.0 -1707.7876,2385.0 -1664.4864,2360.0 -1664.4864,2310.0 -1621.1851,2335.0 -1577.8838,2310.0 -1577.8838,2360.0 -1534.5826,2385.0 -1577.8838,2410.0 -1577.8838,2460.0 -1534.5826,2485.0 -1491.2813,2460.0 -1491.2813,2510.0 -1447.98,2535.0 -1404.6788,2510.0 -1404.6788,2460.0 -1361.3775,2485.0 -1318.0762,2460.0 -1318.0762,2410.0 -1361.3775,2385.0 -1318.0762,2360.0 -1318.0762,2310.0 -1274.7749,2335.0 -1231.4737,2310.0 -1231.4737,2360.0 -1188.1724,2385.0 -1144.8711,2360.0 -1144.8711,2310.0 -1101.5699,2335.0 -1058.2686,2310.0 -1058.2686,2260.0 -1101.5699,2235.0 -1058.2686,2210.0 -1058.2686,2160.0 -1101.5699,2135.0 -1144.8711,2160.0 -1144.8711,2110.0 -1188.1724,2085.0 -1144.8711,2060.0 -1144.8711,2010.0 -1101.5699,2035.0 -1058.2686,2010.0 -1058.2686,1960.0 -1101.5699,1935.0 -1058.2686,1910.0 -1058.2686,1860.0 -1101.5699,1835.0 -1144.8711,1860.0 -1144.8711,1810.0 -1188.1724,1785.0 -1231.4737,1810.0 -1231.4737,1860.0 -1274.7749,1835.0 -1318.0762,1860.0 -1318.0762,1810.0 -1361.3775,1785.0 -1318.0762,1760.0 -1318.0762,1710.0 -1361.3775,1685.0 -1404.6788,1710.0 -1404.6788,1660.0 -1447.98,1635.0 -1404.6788,1610.0 -1404.6788,1560.0 -1361.3775,1585.0 -1318.0762,1560.0 -1318.0762,1510.0 -1361.3775,1485.0 -1318.0762,1460.0 -1318.0762,1410.0 -1274.7749,1435.0 -1231.4737,1410.0 -1231.4737,1460.0 -1188.1724,1485.0 -1144.8711,1460.0 -1144.8711,1410.0 -1101.5699,1435.0 -1058.2686,1410.0 -1058.2686,1360.0 -1101.5699,1335.0 -1058.2686,1310.0 -1058.2686,1260.0 -1101.5699,1235.0 -1144.8711,1260.0 -1144.8711,1210.0 -1188.1724,1185.0 -1144.8711,1160.0 -1144.8711,1110.0 -1101.5699,1135.0 -1058.2686,1110.0 -1058.2686,1060.0 -1101.5699,1035.0 -1058.2686,1010.0 -1058.2686,960.0 -1014.9673,985.0 -971.666,960.0 -971.666,1010.0 -928.3648,1035.0 -885.0635,1010.0 -885.0635,960.0 -841.7622,985.0 -798.461,960.0 -798.461,1010.0 -755.1597,1035.0 -798.461,1060.0 -798.461,1110.0 -755.1597,1135.0 -711.8584,1110.0 -711.8584,1160.0 -668.5572,1185.0 -625.2559,1160.0 -625.2559,1110.0 -581.9546,1135.0 -538.6533,1110.0 -538.6533,1060.0 -581.9546,1035.0 -538.6533,1010.0 -538.6533,960.0 -495.3521,985.0 -452.0508,960.0 -452.0508,1010.0 -408.7495,1035.0 -365.4483,1010.0 -365.4483,960.0 -322.147,985.0 -278.8457,960.0 -278.8457,1010.0 -235.5445,1035.0 -278.8457,1060.0 -278.8457,1110.0 -235.5445,1135.0 -192.2432,1110.0 -192.2432,1160.0 -148.9419,1185.0 -192.2432,1210.0 -192.2432,1260.0 -235.5445,1235.0 -278.8457,1260.0 -278.8457,1310.0 -235.5445,1335.0 -278.8457,1360.0 -278.8457,1410.0 -235.5445,1435.0 -192.2432,1410.0 -192.2432,1460.0 -148.9419,1485.0 -105.6406,1460.0 -105.6406,1410.0 -62.3394,1435.0 -19.0381,1410.0 -19.0381,1460.0 24.2632,1485.0 -19.0381,1510.0 -19.0381,1560.0 24.2632,1585.0 67.5644,1560.0 67.5644,1610.0 110.8657,1635.0 154.167,1610.0 154.167,1560.0 197.4682,1585.0 240.7695,1560.0 240.7695,1510.0 197.4682,1485.0 240.7695,1460.0 240.7695,1410.0 284.0708,1435.0 327.3721,1410.0 327.3721,1460.0 370.6733,1485.0 413.9746,1460.0 413.9746,1410.0 457.2759,1435.0 500.5771,1410.0 500.5771,1360.0 457.2759,1335.0 500.5771,1310.0 500.5771,1260.0 457.2759,1235.0 413.9746,1260.0 413.9746,1210.0 370.6733,1185.0 413.9746,1160.0 413.9746,1110.0 457.2759,1135.0 500.5771,1110.0 500.5771,1060.0 457.2759,1035.0 500.5771,1010.0 500.5771,960.0 543.8784,985.0 587.1797,960.0 587.1797,1010.0 630.4809,1035.0 673.7822,1010.0 673.7822,960.0 717.0835,985.0 760.3848,960.0 760.3848,1010.0 803.686,1035.0 760.3848,1060.0 760.3848,1110.0 803.686,1135.0 846.9873,1110.0 846.9873,1160.0 890.2886,1185.0 933.5898,1160.0 933.5898,1110.0 976.8911,1135.0 1020.1924,1110.0 1020.1924,1060.0 976.8911,1035.0 1020.1924,1010.0 1020.1924,960.0 1063.4936,985.0 1106.7949,960.0 1106.7949,1010.0 1150.0962,1035.0 1193.3975,1010.0 1193.3975,960.0 1236.6987,985.0 1280.0,960.0 1280.0,960.0" style="fill:none;stroke:#000000;stroke-width:0.3px;stroke-linecap:butt;stroke-linejoin:miter;stroke-opacity:1" />
</svg>
