<?xml version="1.0" encoding="UTF-8" standalone="no"?>
<svg
xmlns:dc="http://purl.org/dc/elements/1.1/"
xmlns:cc="http://creativecommons.org/ns#"
xmlns:rdf="http://www.w3.org/1999/02/22-rdf-syntax-ns#"
xmlns:svg="http://www.w3.org/2000/svg"
xmlns="http://www.w3.org/2000/svg"
height="1920"
width="2560"
version="1.1">
<title>Tigerjython SVG</title>
<desc>Tigerjython SVG</desc>
<path id="path4524" d="M 1280.0,960.0 1280.0,1010.0 1323.3013,1035.0 1280.0,1060.0 1280.0,1110.0 1323.3013,1135.0 1366.6025,1110.0 1366.6025,1160.0 1409.9038,1185.0 1366.6025,1210.0 1366.6025,1260.0 1323.3013,1235.0 1280.0,1260.0 1280.0,1310.0 1323.3013,1335.0 1280.0,1360.0 1280.0,1410.0 1236.6987,1385.0 1193.3975,1410.0 1193.3975,1360.0 1150.0962,1335.0 1106.7949,1360.0 1106.7949,1410.0 1063.4936,1385.0 1020.1924,1410.0 1020.1924,1360.0 976.8911,1335.0 1020.1924,1310.0 1020.1924,1260.0 976.8911,1235.0 933.5898,1260.0 933.5898,1210.0 890.2886,1185.0 933.5898,1160.0 933.5898,1110.0 976.8911,1135.0 1020.1924,1110.0 1020.1924,1060.0 976.8911,1035.0 1020.1924,1010.0 1020.1924,960.0 1063.4936,985.0 1106.7949,960.0 1106.7949,1010.0 1150.0962,1035.0 1193.3975,1010.0 1193.3975,960.0 1236.6987,985.0 1280.0,960.0 1280.0,960.0" style="fill:none;stroke:#000000;stroke-width:0.3px;stroke-linecap:butt;stroke-linejoin:miter;stroke-opacity:1" />
</svg>
