<?xml version="1.0" encoding="UTF-8" standalone="no"?>
<svg
xmlns:dc="http://purl.org/dc/elements/1.1/"
xmlns:cc="http://creativecommons.org/ns#"
xmlns:rdf="http://www.w3.org/1999/02/22-rdf-syntax-ns#"
xmlns:svg="http://www.w3.org/2000/svg"
xmlns="http://www.w3.org/2000/svg"
height="900"
width="1200"
version="1.1">
<title>Tigerjython SVG</title>
<desc>Tigerjython SVG</desc>
<path id="path4524" d="M 600.0,450.0 150.0,950.0 193.3013,975.0 150.0,1000.0 150.0,1050.0 193.3013,1075.0 236.6025,1050.0 236.6025,1100.0 279.9038,1125.0 236.6025,1150.0 236.6025,1200.0 193.3013,1175.0 150.0,1200.0 150.0,1250.0 193.3013,1275.0 150.0,1300.0 150.0,1350.0 193.3013,1375.0 236.6025,1350.0 236.6025,1400.0 279.9038,1425.0 323.2051,1400.0 323.2051,1350.0 366.5064,1375.0 409.8076,1350.0 409.8076,1400.0 453.1089,1425.0 409.8076,1450.0 409.8076,1500.0 453.1089,1525.0 496.4102,1500.0 496.4102,1550.0 539.7114,1575.0 496.4102,1600.0 496.4102,1650.0 453.1089,1625.0 409.8076,1650.0 409.8076,1700.0 453.1089,1725.0 409.8076,1750.0 409.8076,1800.0 366.5064,1775.0 323.2051,1800.0 323.2051,1750.0 279.9038,1725.0 236.6025,1750.0 236.6025,1800.0 193.3013,1775.0 150.0,1800.0 150.0,1850.0 193.3013,1875.0 150.0,1900.0 150.0,1950.0 193.3013,1975.0 236.6025,1950.0 236.6025,2000.0 279.9038,2025.0 236.6025,2050.0 236.6025,2100.0 193.3013,2075.0 150.0,2100.0 150.0,2150.0 193.3013,2175.0 150.0,2200.0 150.0,2250.0 193.3013,2275.0 236.6025,2250.0 236.6025,2300.0 279.9038,2325.0 323.2051,2300.0 323.2051,2250.0 366.5064,2275.0 409.8076,2250.0 409.8076,2300.0 453.1089,2325.0 409.8076,2350.0 409.8076,2400.0 453.1089,2425.0 496.4102,2400.0 496.4102,2450.0 539.7114,2475.0 583.0127,2450.0 583.0127,2400.0 626.314,2425.0 669.6152,2400.0 669.6152,2350.0 626.314,2325.0 669.6152,2300.0 669.6152,2250.0 712.9165,2275.0 756.2178,2250.0 756.2178,2300.0 799.5191,2325.0 842.8203,2300.0 842.8203,2250.0 886.1216,2275.0 929.4229,2250.0 929.4229,2300.0 972.7241,2325.0 929.4229,2350.0 929.4229,2400.0 972.7241,2425.0 1016.0254,2400.0 1016.0254,2450.0 1059.3267,2475.0 1016.0254,2500.0 1016.0254,2550.0 972.7241,2525.0 929.4229,2550.0 929.4229,2600.0 972.7241,2625.0 929.4229,2650.0 929.4229,2700.0 972.7241,2725.0 1016.0254,2700.0 1016.0254,2750.0 1059.3267,2775.0 1102.6279,2750.0 1102.6279,2700.0 1145.9292,2725.0 1189.2305,2700.0 1189.2305,2750.0 1232.5318,2775.0 1189.2305,2800.0 1189.2305,2850.0 1232.5318,2875.0 1275.833,2850.0 1275.833,2900.0 1319.1343,2925.0 1275.833,2950.0 1275.833,3000.0 1232.5318,2975.0 1189.2305,3000.0 1189.2305,3050.0 1232.5318,3075.0 1189.2305,3100.0 1189.2305,3150.0 1145.9292,3125.0 1102.6279,3150.0 1102.6279,3100.0 1059.3267,3075.0 1016.0254,3100.0 1016.0254,3150.0 972.7241,3125.0 929.4229,3150.0 929.4229,3200.0 972.7241,3225.0 929.4229,3250.0 929.4229,3300.0 972.7241,3325.0 1016.0254,3300.0 1016.0254,3350.0 1059.3267,3375.0 1016.0254,3400.0 1016.0254,3450.0 972.7241,3425.0 929.4229,3450.0 929.4229,3500.0 972.7241,3525.0 929.4229,3550.0 929.4229,3600.0 886.1216,3575.0 842.8203,3600.0 842.8203,3550.0 799.5191,3525.0 756.2178,3550.0 756.2178,3600.0 712.9165,3575.0 669.6152,3600.0 669.6152,3550.0 626.314,3525.0 669.6152,3500.0 669.6152,3450.0 626.314,3425.0 583.0127,3450.0 583.0127,3400.0 539.7114,3375.0 496.4102,3400.0 496.4102,3450.0 453.1089,3425.0 409.8076,3450.0 409.8076,3500.0 453.1089,3525.0 409.8076,3550.0 409.8076,3600.0 366.5064,3575.0 323.2051,3600.0 323.2051,3550.0 279.9038,3525.0 236.6025,3550.0 236.6025,3600.0 193.3013,3575.0 150.0,3600.0 150.0,3650.0 193.3013,3675.0 150.0,3700.0 150.0,3750.0 193.3013,3775.0 236.6025,3750.0 236.6025,3800.0 279.9038,3825.0 236.6025,3850.0 236.6025,3900.0 193.3013,3875.0 150.0,3900.0 150.0,3950.0 193.3013,3975.0 150.0,4000.0 150.0,4050.0 193.3013,4075.0 236.6025,4050.0 236.6025,4100.0 279.9038,4125.0 323.2051,4100.0 323.2051,4050.0 366.5064,4075.0 409.8076,4050.0 409.8076,4100.0 453.1089,4125.0 409.8076,4150.0 409.8076,4200.0 453.1089,4225.0 496.4102,4200.0 496.4102,4250.0 539.7114,4275.0 496.4102,4300.0 496.4102,4350.0 453.1089,4325.0 409.8076,4350.0 409.8076,4400.0 453.1089,4425.0 409.8076,4450.0 409.8076,4500.0 366.5064,4475.0 323.2051,4500.0 323.2051,4450.0 279.9038,4425.0 236.6025,4450.0 236.6025,4500.0 193.3013,4475.0 150.0,4500.0 150.0,4550.0 193.3013,4575.0 150.0,4600.0 150.0,4650.0 193.3013,4675.0 236.6025,4650.0 236.6025,4700.0 279.9038,4725.0 236.6025,4750.0 236.6025,4800.0 193.3013,4775.0 150.0,4800.0 150.0,4850.0 193.3013,4875.0 150.0,4900.0 150.0,4950.0 106.6987,4925.0 63.3975,4950.0 63.3975,4900.0 20.0962,4875.0 -23.2051,4900.0 -23.2051,4950.0 -66.5064,4925.0 -109.8076,4950.0 -109.8076,4900.0 -153.1089,4875.0 -109.8076,4850.0 -109.8076,4800.0 -153.1089,4775.0 -196.4102,4800.0 -196.4102,4750.0 -239.7114,4725.0 -283.0127,4750.0 -283.0127,4800.0 -326.314,4775.0 -369.6152,4800.0 -369.6152,4850.0 -326.314,4875.0 -369.6152,4900.0 -369.6152,4950.0 -412.9165,4925.0 -456.2178,4950.0 -456.2178,4900.0 -499.5191,4875.0 -542.8203,4900.0 -542.8203,4950.0 -586.1216,4925.0 -629.4229,4950.0 -629.4229,4900.0 -672.7241,4875.0 -629.4229,4850.0 -629.4229,4800.0 -672.7241,4775.0 -716.0254,4800.0 -716.0254,4750.0 -759.3267,4725.0 -716.0254,4700.0 -716.0254,4650.0 -672.7241,4675.0 -629.4229,4650.0 -629.4229,4600.0 -672.7241,4575.0 -629.4229,4550.0 -629.4229,4500.0 -672.7241,4475.0 -716.0254,4500.0 -716.0254,4450.0 -759.3267,4425.0 -802.6279,4450.0 -802.6279,4500.0 -845.9292,4475.0 -889.2305,4500.0 -889.2305,4450.0 -932.5318,4425.0 -889.2305,4400.0 -889.2305,4350.0 -932.5318,4325.0 -975.833,4350.0 -975.833,4300.0 -1019.1343,4275.0 -1062.4356,4300.0 -1062.4356,4350.0 -1105.7368,4325.0 -1149.0381,4350.0 -1149.0381,4400.0 -1105.7368,4425.0 -1149.0381,4450.0 -1149.0381,4500.0 -1192.3394,4475.0 -1235.6406,4500.0 -1235.6406,4450.0 -1278.9419,4425.0 -1322.2432,4450.0 -1322.2432,4500.0 -1365.5445,4475.0 -1408.8457,4500.0 -1408.8457,4550.0 -1365.5445,4575.0 -1408.8457,4600.0 -1408.8457,4650.0 -1365.5445,4675.0 -1322.2432,4650.0 -1322.2432,4700.0 -1278.9419,4725.0 -1322.2432,4750.0 -1322.2432,4800.0 -1365.5445,4775.0 -1408.8457,4800.0 -1408.8457,4850.0 -1365.5445,4875.0 -1408.8457,4900.0 -1408.8457,4950.0 -1452.147,4925.0 -1495.4483,4950.0 -1495.4483,4900.0 -1538.7495,4875.0 -1582.0508,4900.0 -1582.0508,4950.0 -1625.3521,4925.0 -1668.6533,4950.0 -1668.6533,4900.0 -1711.9546,4875.0 -1668.6533,4850.0 -1668.6533,4800.0 -1711.9546,4775.0 -1755.2559,4800.0 -1755.2559,4750.0 -1798.5572,4725.0 -1841.8584,4750.0 -1841.8584,4800.0 -1885.1597,4775.0 -1928.461,4800.0 -1928.461,4850.0 -1885.1597,4875.0 -1928.461,4900.0 -1928.461,4950.0 -1971.7622,4925.0 -2015.0635,4950.0 -2015.0635,4900.0 -2058.3648,4875.0 -2101.666,4900.0 -2101.666,4950.0 -2144.9673,4925.0 -2188.2686,4950.0 -2188.2686,4900.0 -2231.5699,4875.0 -2188.2686,4850.0 -2188.2686,4800.0 -2231.5699,4775.0 -2274.8711,4800.0 -2274.8711,4750.0 -2318.1724,4725.0 -2274.8711,4700.0 -2274.8711,4650.0 -2231.5699,4675.0 -2188.2686,4650.0 -2188.2686,4600.0 -2231.5699,4575.0 -2188.2686,4550.0 -2188.2686,4500.0 -2231.5699,4475.0 -2274.8711,4500.0 -2274.8711,4450.0 -2318.1724,4425.0 -2361.4737,4450.0 -2361.4737,4500.0 -2404.7749,4475.0 -2448.0762,4500.0 -2448.0762,4450.0 -2491.3775,4425.0 -2448.0762,4400.0 -2448.0762,4350.0 -2491.3775,4325.0 -2534.6788,4350.0 -2534.6788,4300.0 -2577.98,4275.0 -2534.6788,4250.0 -2534.6788,4200.0 -2491.3775,4225.0 -2448.0762,4200.0 -2448.0762,4150.0 -2491.3775,4125.0 -2448.0762,4100.0 -2448.0762,4050.0 -2404.7749,4075.0 -2361.4737,4050.0 -2361.4737,4100.0 -2318.1724,4125.0 -2274.8711,4100.0 -2274.8711,4050.0 -2231.5699,4075.0 -2188.2686,4050.0 -2188.2686,4000.0 -2231.5699,3975.0 -2188.2686,3950.0 -2188.2686,3900.0 -2231.5699,3875.0 -2274.8711,3900.0 -2274.8711,3850.0 -2318.1724,3825.0 -2274.8711,3800.0 -2274.8711,3750.0 -2231.5699,3775.0 -2188.2686,3750.0 -2188.2686,3700.0 -2231.5699,3675.0 -2188.2686,3650.0 -2188.2686,3600.0 -2231.5699,3575.0 -2274.8711,3600.0 -2274.8711,3550.0 -2318.1724,3525.0 -2361.4737,3550.0 -2361.4737,3600.0 -2404.7749,3575.0 -2448.0762,3600.0 -2448.0762,3550.0 -2491.3775,3525.0 -2448.0762,3500.0 -2448.0762,3450.0 -2491.3775,3425.0 -2534.6788,3450.0 -2534.6788,3400.0 -2577.98,3375.0 -2621.2813,3400.0 -2621.2813,3450.0 -2664.5826,3425.0 -2707.8838,3450.0 -2707.8838,3500.0 -2664.5826,3525.0 -2707.8838,3550.0 -2707.8838,3600.0 -2751.1851,3575.0 -2794.4864,3600.0 -2794.4864,3550.0 -2837.7876,3525.0 -2881.0889,3550.0 -2881.0889,3600.0 -2924.3902,3575.0 -2967.6915,3600.0 -2967.6915,3550.0 -3010.9927,3525.0 -2967.6915,3500.0 -2967.6915,3450.0 -3010.9927,3425.0 -3054.294,3450.0 -3054.294,3400.0 -3097.5953,3375.0 -3054.294,3350.0 -3054.294,3300.0 -3010.9927,3325.0 -2967.6915,3300.0 -2967.6915,3250.0 -3010.9927,3225.0 -2967.6915,3200.0 -2967.6915,3150.0 -3010.9927,3125.0 -3054.294,3150.0 -3054.294,3100.0 -3097.5953,3075.0 -3140.8965,3100.0 -3140.8965,3150.0 -3184.1978,3125.0 -3227.4991,3150.0 -3227.4991,3100.0 -3270.8003,3075.0 -3227.4991,3050.0 -3227.4991,3000.0 -3270.8003,2975.0 -3314.1016,3000.0 -3314.1016,2950.0 -3357.4029,2925.0 -3314.1016,2900.0 -3314.1016,2850.0 -3270.8003,2875.0 -3227.4991,2850.0 -3227.4991,2800.0 -3270.8003,2775.0 -3227.4991,2750.0 -3227.4991,2700.0 -3184.1978,2725.0 -3140.8965,2700.0 -3140.8965,2750.0 -3097.5953,2775.0 -3054.294,2750.0 -3054.294,2700.0 -3010.9927,2725.0 -2967.6915,2700.0 -2967.6915,2650.0 -3010.9927,2625.0 -2967.6915,2600.0 -2967.6915,2550.0 -3010.9927,2525.0 -3054.294,2550.0 -3054.294,2500.0 -3097.5953,2475.0 -3054.294,2450.0 -3054.294,2400.0 -3010.9927,2425.0 -2967.6915,2400.0 -2967.6915,2350.0 -3010.9927,2325.0 -2967.6915,2300.0 -2967.6915,2250.0 -2924.3902,2275.0 -2881.0889,2250.0 -2881.0889,2300.0 -2837.7876,2325.0 -2794.4864,2300.0 -2794.4864,2250.0 -2751.1851,2275.0 -2707.8838,2250.0 -2707.8838,2300.0 -2664.5826,2325.0 -2707.8838,2350.0 -2707.8838,2400.0 -2664.5826,2425.0 -2621.2813,2400.0 -2621.2813,2450.0 -2577.98,2475.0 -2534.6788,2450.0 -2534.6788,2400.0 -2491.3775,2425.0 -2448.0762,2400.0 -2448.0762,2350.0 -2491.3775,2325.0 -2448.0762,2300.0 -2448.0762,2250.0 -2404.7749,2275.0 -2361.4737,2250.0 -2361.4737,2300.0 -2318.1724,2325.0 -2274.8711,2300.0 -2274.8711,2250.0 -2231.5699,2275.0 -2188.2686,2250.0 -2188.2686,2200.0 -2231.5699,2175.0 -2188.2686,2150.0 -2188.2686,2100.0 -2231.5699,2075.0 -2274.8711,2100.0 -2274.8711,2050.0 -2318.1724,2025.0 -2274.8711,2000.0 -2274.8711,1950.0 -2231.5699,1975.0 -2188.2686,1950.0 -2188.2686,1900.0 -2231.5699,1875.0 -2188.2686,1850.0 -2188.2686,1800.0 -2231.5699,1775.0 -2274.8711,1800.0 -2274.8711,1750.0 -2318.1724,1725.0 -2361.4737,1750.0 -2361.4737,1800.0 -2404.7749,1775.0 -2448.0762,1800.0 -2448.0762,1750.0 -2491.3775,1725.0 -2448.0762,1700.0 -2448.0762,1650.0 -2491.3775,1625.0 -2534.6788,1650.0 -2534.6788,1600.0 -2577.98,1575.0 -2534.6788,1550.0 -2534.6788,1500.0 -2491.3775,1525.0 -2448.0762,1500.0 -2448.0762,1450.0 -2491.3775,1425.0 -2448.0762,1400.0 -2448.0762,1350.0 -2404.7749,1375.0 -2361.4737,1350.0 -2361.4737,1400.0 -2318.1724,1425.0 -2274.8711,1400.0 -2274.8711,1350.0 -2231.5699,1375.0 -2188.2686,1350.0 -2188.2686,1300.0 -2231.5699,1275.0 -2188.2686,1250.0 -2188.2686,1200.0 -2231.5699,1175.0 -2274.8711,1200.0 -2274.8711,1150.0 -2318.1724,1125.0 -2274.8711,1100.0 -2274.8711,1050.0 -2231.5699,1075.0 -2188.2686,1050.0 -2188.2686,1000.0 -2231.5699,975.0 -2188.2686,950.0 -2188.2686,900.0 -2144.9673,925.0 -2101.666,900.0 -2101.666,950.0 -2058.3648,975.0 -2015.0635,950.0 -2015.0635,900.0 -1971.7622,925.0 -1928.461,900.0 -1928.461,950.0 -1885.1597,975.0 -1928.461,1000.0 -1928.461,1050.0 -1885.1597,1075.0 -1841.8584,1050.0 -1841.8584,1100.0 -1798.5572,1125.0 -1755.2559,1100.0 -1755.2559,1050.0 -1711.9546,1075.0 -1668.6533,1050.0 -1668.6533,1000.0 -1711.9546,975.0 -1668.6533,950.0 -1668.6533,900.0 -1625.3521,925.0 -1582.0508,900.0 -1582.0508,950.0 -1538.7495,975.0 -1495.4483,950.0 -1495.4483,900.0 -1452.147,925.0 -1408.8457,900.0 -1408.8457,950.0 -1365.5445,975.0 -1408.8457,1000.0 -1408.8457,1050.0 -1365.5445,1075.0 -1322.2432,1050.0 -1322.2432,1100.0 -1278.9419,1125.0 -1322.2432,1150.0 -1322.2432,1200.0 -1365.5445,1175.0 -1408.8457,1200.0 -1408.8457,1250.0 -1365.5445,1275.0 -1408.8457,1300.0 -1408.8457,1350.0 -1365.5445,1375.0 -1322.2432,1350.0 -1322.2432,1400.0 -1278.9419,1425.0 -1235.6406,1400.0 -1235.6406,1350.0 -1192.3394,1375.0 -1149.0381,1350.0 -1149.0381,1400.0 -1105.7368,1425.0 -1149.0381,1450.0 -1149.0381,1500.0 -1105.7368,1525.0 -1062.4356,1500.0 -1062.4356,1550.0 -1019.1343,1575.0 -975.833,1550.0 -975.833,1500.0 -932.5318,1525.0 -889.2305,1500.0 -889.2305,1450.0 -932.5318,1425.0 -889.2305,1400.0 -889.2305,1350.0 -845.9292,1375.0 -802.6279,1350.0 -802.6279,1400.0 -759.3267,1425.0 -716.0254,1400.0 -716.0254,1350.0 -672.7241,1375.0 -629.4229,1350.0 -629.4229,1300.0 -672.7241,1275.0 -629.4229,1250.0 -629.4229,1200.0 -672.7241,1175.0 -716.0254,1200.0 -716.0254,1150.0 -759.3267,1125.0 -716.0254,1100.0 -716.0254,1050.0 -672.7241,1075.0 -629.4229,1050.0 -629.4229,1000.0 -672.7241,975.0 -629.4229,950.0 -629.4229,900.0 -586.1216,925.0 -542.8203,900.0 -542.8203,950.0 -499.5191,975.0 -456.2178,950.0 -456.2178,900.0 -412.9165,925.0 -369.6152,900.0 -369.6152,950.0 -326.314,975.0 -369.6152,1000.0 -369.6152,1050.0 -326.314,1075.0 -283.0127,1050.0 -283.0127,1100.0 -239.7114,1125.0 -196.4102,1100.0 -196.4102,1050.0 -153.1089,1075.0 -109.8076,1050.0 -109.8076,1000.0 -153.1089,975.0 -109.8076,950.0 -109.8076,900.0 -66.5064,925.0 -23.2051,900.0 -23.2051,950.0 20.0962,975.0 63.3975,950.0 63.3975,900.0 106.6987,925.0 150.0,900.0 600.0,450.0" style="fill:none;stroke:#000000;stroke-width:0.3px;stroke-linecap:butt;stroke-linejoin:miter;stroke-opacity:1" />
</svg>
