<?xml version="1.0" encoding="UTF-8" standalone="no"?>
<svg
xmlns:dc="http://purl.org/dc/elements/1.1/"
xmlns:cc="http://creativecommons.org/ns#"
xmlns:rdf="http://www.w3.org/1999/02/22-rdf-syntax-ns#"
xmlns:svg="http://www.w3.org/2000/svg"
xmlns="http://www.w3.org/2000/svg"
height="1920"
width="2560"
version="1.1">
<title>Tigerjython SVG</title>
<desc>Tigerjython SVG</desc>
<path id="path4524" d="M 1280.0,760.0 1280.0,960.0 1280.0,970.0 1288.6603,975.0 1280.0,980.0 1280.0,990.0 1288.6603,995.0 1297.3205,990.0 1297.3205,1000.0 1305.9808,1005.0 1297.3205,1010.0 1297.3205,1020.0 1288.6603,1015.0 1280.0,1020.0 1280.0,1030.0 1288.6603,1035.0 1280.0,1040.0 1280.0,1050.0 1288.6603,1055.0 1297.3205,1050.0 1297.3205,1060.0 1305.9808,1065.0 1314.641,1060.0 1314.641,1050.0 1323.3013,1055.0 1331.9615,1050.0 1331.9615,1060.0 1340.6218,1065.0 1331.9615,1070.0 1331.9615,1080.0 1340.6218,1085.0 1349.282,1080.0 1349.282,1090.0 1357.9423,1095.0 1349.282,1100.0 1349.282,1110.0 1340.6218,1105.0 1331.9615,1110.0 1331.9615,1120.0 1340.6218,1125.0 1331.9615,1130.0 1331.9615,1140.0 1323.3013,1135.0 1314.641,1140.0 1314.641,1130.0 1305.9808,1125.0 1297.3205,1130.0 1297.3205,1140.0 1288.6603,1135.0 1280.0,1140.0 1280.0,1150.0 1288.6603,1155.0 1280.0,1160.0 1280.0,1170.0 1288.6603,1175.0 1297.3205,1170.0 1297.3205,1180.0 1305.9808,1185.0 1297.3205,1190.0 1297.3205,1200.0 1288.6603,1195.0 1280.0,1200.0 1280.0,1210.0 1288.6603,1215.0 1280.0,1220.0 1280.0,1230.0 1288.6603,1235.0 1297.3205,1230.0 1297.3205,1240.0 1305.9808,1245.0 1314.641,1240.0 1314.641,1230.0 1323.3013,1235.0 1331.9615,1230.0 1331.9615,1240.0 1340.6218,1245.0 1331.9615,1250.0 1331.9615,1260.0 1340.6218,1265.0 1349.282,1260.0 1349.282,1270.0 1357.9423,1275.0 1366.6025,1270.0 1366.6025,1260.0 1375.2628,1265.0 1383.923,1260.0 1383.923,1250.0 1375.2628,1245.0 1383.923,1240.0 1383.923,1230.0 1392.5833,1235.0 1401.2436,1230.0 1401.2436,1240.0 1409.9038,1245.0 1418.5641,1240.0 1418.5641,1230.0 1427.2243,1235.0 1435.8846,1230.0 1435.8846,1240.0 1444.5448,1245.0 1435.8846,1250.0 1435.8846,1260.0 1444.5448,1265.0 1453.2051,1260.0 1453.2051,1270.0 1461.8653,1275.0 1453.2051,1280.0 1453.2051,1290.0 1444.5448,1285.0 1435.8846,1290.0 1435.8846,1300.0 1444.5448,1305.0 1435.8846,1310.0 1435.8846,1320.0 1444.5448,1325.0 1453.2051,1320.0 1453.2051,1330.0 1461.8653,1335.0 1470.5256,1330.0 1470.5256,1320.0 1479.1858,1325.0 1487.8461,1320.0 1487.8461,1330.0 1496.5064,1335.0 1487.8461,1340.0 1487.8461,1350.0 1496.5064,1355.0 1505.1666,1350.0 1505.1666,1360.0 1513.8269,1365.0 1505.1666,1370.0 1505.1666,1380.0 1496.5064,1375.0 1487.8461,1380.0 1487.8461,1390.0 1496.5064,1395.0 1487.8461,1400.0 1487.8461,1410.0 1479.1858,1405.0 1470.5256,1410.0 1470.5256,1400.0 1461.8653,1395.0 1453.2051,1400.0 1453.2051,1410.0 1444.5448,1405.0 1435.8846,1410.0 1435.8846,1420.0 1444.5448,1425.0 1435.8846,1430.0 1435.8846,1440.0 1444.5448,1445.0 1453.2051,1440.0 1453.2051,1450.0 1461.8653,1455.0 1453.2051,1460.0 1453.2051,1470.0 1444.5448,1465.0 1435.8846,1470.0 1435.8846,1480.0 1444.5448,1485.0 1435.8846,1490.0 1435.8846,1500.0 1427.2243,1495.0 1418.5641,1500.0 1418.5641,1490.0 1409.9038,1485.0 1401.2436,1490.0 1401.2436,1500.0 1392.5833,1495.0 1383.923,1500.0 1383.923,1490.0 1375.2628,1485.0 1383.923,1480.0 1383.923,1470.0 1375.2628,1465.0 1366.6025,1470.0 1366.6025,1460.0 1357.9423,1455.0 1349.282,1460.0 1349.282,1470.0 1340.6218,1465.0 1331.9615,1470.0 1331.9615,1480.0 1340.6218,1485.0 1331.9615,1490.0 1331.9615,1500.0 1323.3013,1495.0 1314.641,1500.0 1314.641,1490.0 1305.9808,1485.0 1297.3205,1490.0 1297.3205,1500.0 1288.6603,1495.0 1280.0,1500.0 1280.0,1510.0 1288.6603,1515.0 1280.0,1520.0 1280.0,1530.0 1288.6603,1535.0 1297.3205,1530.0 1297.3205,1540.0 1305.9808,1545.0 1297.3205,1550.0 1297.3205,1560.0 1288.6603,1555.0 1280.0,1560.0 1280.0,1570.0 1288.6603,1575.0 1280.0,1580.0 1280.0,1590.0 1288.6603,1595.0 1297.3205,1590.0 1297.3205,1600.0 1305.9808,1605.0 1314.641,1600.0 1314.641,1590.0 1323.3013,1595.0 1331.9615,1590.0 1331.9615,1600.0 1340.6218,1605.0 1331.9615,1610.0 1331.9615,1620.0 1340.6218,1625.0 1349.282,1620.0 1349.282,1630.0 1357.9423,1635.0 1349.282,1640.0 1349.282,1650.0 1340.6218,1645.0 1331.9615,1650.0 1331.9615,1660.0 1340.6218,1665.0 1331.9615,1670.0 1331.9615,1680.0 1323.3013,1675.0 1314.641,1680.0 1314.641,1670.0 1305.9808,1665.0 1297.3205,1670.0 1297.3205,1680.0 1288.6603,1675.0 1280.0,1680.0 1280.0,1690.0 1288.6603,1695.0 1280.0,1700.0 1280.0,1710.0 1288.6603,1715.0 1297.3205,1710.0 1297.3205,1720.0 1305.9808,1725.0 1297.3205,1730.0 1297.3205,1740.0 1288.6603,1735.0 1280.0,1740.0 1280.0,1750.0 1288.6603,1755.0 1280.0,1760.0 1280.0,1770.0 1271.3397,1765.0 1262.6795,1770.0 1262.6795,1760.0 1254.0192,1755.0 1245.359,1760.0 1245.359,1770.0 1236.6987,1765.0 1228.0385,1770.0 1228.0385,1760.0 1219.3782,1755.0 1228.0385,1750.0 1228.0385,1740.0 1219.3782,1735.0 1210.718,1740.0 1210.718,1730.0 1202.0577,1725.0 1193.3975,1730.0 1193.3975,1740.0 1184.7372,1735.0 1176.077,1740.0 1176.077,1750.0 1184.7372,1755.0 1176.077,1760.0 1176.077,1770.0 1167.4167,1765.0 1158.7564,1770.0 1158.7564,1760.0 1150.0962,1755.0 1141.4359,1760.0 1141.4359,1770.0 1132.7757,1765.0 1124.1154,1770.0 1124.1154,1760.0 1115.4552,1755.0 1124.1154,1750.0 1124.1154,1740.0 1115.4552,1735.0 1106.7949,1740.0 1106.7949,1730.0 1098.1347,1725.0 1106.7949,1720.0 1106.7949,1710.0 1115.4552,1715.0 1124.1154,1710.0 1124.1154,1700.0 1115.4552,1695.0 1124.1154,1690.0 1124.1154,1680.0 1115.4552,1675.0 1106.7949,1680.0 1106.7949,1670.0 1098.1347,1665.0 1089.4744,1670.0 1089.4744,1680.0 1080.8142,1675.0 1072.1539,1680.0 1072.1539,1670.0 1063.4936,1665.0 1072.1539,1660.0 1072.1539,1650.0 1063.4936,1645.0 1054.8334,1650.0 1054.8334,1640.0 1046.1731,1635.0 1037.5129,1640.0 1037.5129,1650.0 1028.8526,1645.0 1020.1924,1650.0 1020.1924,1660.0 1028.8526,1665.0 1020.1924,1670.0 1020.1924,1680.0 1011.5321,1675.0 1002.8719,1680.0 1002.8719,1670.0 994.2116,1665.0 985.5514,1670.0 985.5514,1680.0 976.8911,1675.0 968.2309,1680.0 968.2309,1690.0 976.8911,1695.0 968.2309,1700.0 968.2309,1710.0 976.8911,1715.0 985.5514,1710.0 985.5514,1720.0 994.2116,1725.0 985.5514,1730.0 985.5514,1740.0 976.8911,1735.0 968.2309,1740.0 968.2309,1750.0 976.8911,1755.0 968.2309,1760.0 968.2309,1770.0 959.5706,1765.0 950.9103,1770.0 950.9103,1760.0 942.2501,1755.0 933.5898,1760.0 933.5898,1770.0 924.9296,1765.0 916.2693,1770.0 916.2693,1760.0 907.6091,1755.0 916.2693,1750.0 916.2693,1740.0 907.6091,1735.0 898.9488,1740.0 898.9488,1730.0 890.2886,1725.0 881.6283,1730.0 881.6283,1740.0 872.9681,1735.0 864.3078,1740.0 864.3078,1750.0 872.9681,1755.0 864.3078,1760.0 864.3078,1770.0 855.6476,1765.0 846.9873,1770.0 846.9873,1760.0 838.327,1755.0 829.6668,1760.0 829.6668,1770.0 821.0065,1765.0 812.3463,1770.0 812.3463,1760.0 803.686,1755.0 812.3463,1750.0 812.3463,1740.0 803.686,1735.0 795.0258,1740.0 795.0258,1730.0 786.3655,1725.0 795.0258,1720.0 795.0258,1710.0 803.686,1715.0 812.3463,1710.0 812.3463,1700.0 803.686,1695.0 812.3463,1690.0 812.3463,1680.0 803.686,1675.0 795.0258,1680.0 795.0258,1670.0 786.3655,1665.0 777.7053,1670.0 777.7053,1680.0 769.045,1675.0 760.3848,1680.0 760.3848,1670.0 751.7245,1665.0 760.3848,1660.0 760.3848,1650.0 751.7245,1645.0 743.0642,1650.0 743.0642,1640.0 734.404,1635.0 743.0642,1630.0 743.0642,1620.0 751.7245,1625.0 760.3848,1620.0 760.3848,1610.0 751.7245,1605.0 760.3848,1600.0 760.3848,1590.0 769.045,1595.0 777.7053,1590.0 777.7053,1600.0 786.3655,1605.0 795.0258,1600.0 795.0258,1590.0 803.686,1595.0 812.3463,1590.0 812.3463,1580.0 803.686,1575.0 812.3463,1570.0 812.3463,1560.0 803.686,1555.0 795.0258,1560.0 795.0258,1550.0 786.3655,1545.0 795.0258,1540.0 795.0258,1530.0 803.686,1535.0 812.3463,1530.0 812.3463,1520.0 803.686,1515.0 812.3463,1510.0 812.3463,1500.0 803.686,1495.0 795.0258,1500.0 795.0258,1490.0 786.3655,1485.0 777.7053,1490.0 777.7053,1500.0 769.045,1495.0 760.3848,1500.0 760.3848,1490.0 751.7245,1485.0 760.3848,1480.0 760.3848,1470.0 751.7245,1465.0 743.0642,1470.0 743.0642,1460.0 734.404,1455.0 725.7437,1460.0 725.7437,1470.0 717.0835,1465.0 708.4232,1470.0 708.4232,1480.0 717.0835,1485.0 708.4232,1490.0 708.4232,1500.0 699.763,1495.0 691.1027,1500.0 691.1027,1490.0 682.4425,1485.0 673.7822,1490.0 673.7822,1500.0 665.122,1495.0 656.4617,1500.0 656.4617,1490.0 647.8015,1485.0 656.4617,1480.0 656.4617,1470.0 647.8015,1465.0 639.1412,1470.0 639.1412,1460.0 630.4809,1455.0 639.1412,1450.0 639.1412,1440.0 647.8015,1445.0 656.4617,1440.0 656.4617,1430.0 647.8015,1425.0 656.4617,1420.0 656.4617,1410.0 647.8015,1405.0 639.1412,1410.0 639.1412,1400.0 630.4809,1395.0 621.8207,1400.0 621.8207,1410.0 613.1604,1405.0 604.5002,1410.0 604.5002,1400.0 595.8399,1395.0 604.5002,1390.0 604.5002,1380.0 595.8399,1375.0 587.1797,1380.0 587.1797,1370.0 578.5194,1365.0 587.1797,1360.0 587.1797,1350.0 595.8399,1355.0 604.5002,1350.0 604.5002,1340.0 595.8399,1335.0 604.5002,1330.0 604.5002,1320.0 613.1604,1325.0 621.8207,1320.0 621.8207,1330.0 630.4809,1335.0 639.1412,1330.0 639.1412,1320.0 647.8015,1325.0 656.4617,1320.0 656.4617,1310.0 647.8015,1305.0 656.4617,1300.0 656.4617,1290.0 647.8015,1285.0 639.1412,1290.0 639.1412,1280.0 630.4809,1275.0 639.1412,1270.0 639.1412,1260.0 647.8015,1265.0 656.4617,1260.0 656.4617,1250.0 647.8015,1245.0 656.4617,1240.0 656.4617,1230.0 665.122,1235.0 673.7822,1230.0 673.7822,1240.0 682.4425,1245.0 691.1027,1240.0 691.1027,1230.0 699.763,1235.0 708.4232,1230.0 708.4232,1240.0 717.0835,1245.0 708.4232,1250.0 708.4232,1260.0 717.0835,1265.0 725.7437,1260.0 725.7437,1270.0 734.404,1275.0 743.0642,1270.0 743.0642,1260.0 751.7245,1265.0 760.3848,1260.0 760.3848,1250.0 751.7245,1245.0 760.3848,1240.0 760.3848,1230.0 769.045,1235.0 777.7053,1230.0 777.7053,1240.0 786.3655,1245.0 795.0258,1240.0 795.0258,1230.0 803.686,1235.0 812.3463,1230.0 812.3463,1220.0 803.686,1215.0 812.3463,1210.0 812.3463,1200.0 803.686,1195.0 795.0258,1200.0 795.0258,1190.0 786.3655,1185.0 795.0258,1180.0 795.0258,1170.0 803.686,1175.0 812.3463,1170.0 812.3463,1160.0 803.686,1155.0 812.3463,1150.0 812.3463,1140.0 803.686,1135.0 795.0258,1140.0 795.0258,1130.0 786.3655,1125.0 777.7053,1130.0 777.7053,1140.0 769.045,1135.0 760.3848,1140.0 760.3848,1130.0 751.7245,1125.0 760.3848,1120.0 760.3848,1110.0 751.7245,1105.0 743.0642,1110.0 743.0642,1100.0 734.404,1095.0 743.0642,1090.0 743.0642,1080.0 751.7245,1085.0 760.3848,1080.0 760.3848,1070.0 751.7245,1065.0 760.3848,1060.0 760.3848,1050.0 769.045,1055.0 777.7053,1050.0 777.7053,1060.0 786.3655,1065.0 795.0258,1060.0 795.0258,1050.0 803.686,1055.0 812.3463,1050.0 812.3463,1040.0 803.686,1035.0 812.3463,1030.0 812.3463,1020.0 803.686,1015.0 795.0258,1020.0 795.0258,1010.0 786.3655,1005.0 795.0258,1000.0 795.0258,990.0 803.686,995.0 812.3463,990.0 812.3463,980.0 803.686,975.0 812.3463,970.0 812.3463,960.0 821.0065,965.0 829.6668,960.0 829.6668,970.0 838.327,975.0 846.9873,970.0 846.9873,960.0 855.6476,965.0 864.3078,960.0 864.3078,970.0 872.9681,975.0 864.3078,980.0 864.3078,990.0 872.9681,995.0 881.6283,990.0 881.6283,1000.0 890.2886,1005.0 898.9488,1000.0 898.9488,990.0 907.6091,995.0 916.2693,990.0 916.2693,980.0 907.6091,975.0 916.2693,970.0 916.2693,960.0 924.9296,965.0 933.5898,960.0 933.5898,970.0 942.2501,975.0 950.9103,970.0 950.9103,960.0 959.5706,965.0 968.2309,960.0 968.2309,970.0 976.8911,975.0 968.2309,980.0 968.2309,990.0 976.8911,995.0 985.5514,990.0 985.5514,1000.0 994.2116,1005.0 985.5514,1010.0 985.5514,1020.0 976.8911,1015.0 968.2309,1020.0 968.2309,1030.0 976.8911,1035.0 968.2309,1040.0 968.2309,1050.0 976.8911,1055.0 985.5514,1050.0 985.5514,1060.0 994.2116,1065.0 1002.8719,1060.0 1002.8719,1050.0 1011.5321,1055.0 1020.1924,1050.0 1020.1924,1060.0 1028.8526,1065.0 1020.1924,1070.0 1020.1924,1080.0 1028.8526,1085.0 1037.5129,1080.0 1037.5129,1090.0 1046.1731,1095.0 1054.8334,1090.0 1054.8334,1080.0 1063.4936,1085.0 1072.1539,1080.0 1072.1539,1070.0 1063.4936,1065.0 1072.1539,1060.0 1072.1539,1050.0 1080.8142,1055.0 1089.4744,1050.0 1089.4744,1060.0 1098.1347,1065.0 1106.7949,1060.0 1106.7949,1050.0 1115.4552,1055.0 1124.1154,1050.0 1124.1154,1040.0 1115.4552,1035.0 1124.1154,1030.0 1124.1154,1020.0 1115.4552,1015.0 1106.7949,1020.0 1106.7949,1010.0 1098.1347,1005.0 1106.7949,1000.0 1106.7949,990.0 1115.4552,995.0 1124.1154,990.0 1124.1154,980.0 1115.4552,975.0 1124.1154,970.0 1124.1154,960.0 1132.7757,965.0 1141.4359,960.0 1141.4359,970.0 1150.0962,975.0 1158.7564,970.0 1158.7564,960.0 1167.4167,965.0 1176.077,960.0 1176.077,970.0 1184.7372,975.0 1176.077,980.0 1176.077,990.0 1184.7372,995.0 1193.3975,990.0 1193.3975,1000.0 1202.0577,1005.0 1210.718,1000.0 1210.718,990.0 1219.3782,995.0 1228.0385,990.0 1228.0385,980.0 1219.3782,975.0 1228.0385,970.0 1228.0385,960.0 1236.6987,965.0 1245.359,960.0 1245.359,970.0 1254.0192,975.0 1262.6795,970.0 1262.6795,960.0 1271.3397,965.0" style="fill:none;stroke:#000000;stroke-width:0.3px;stroke-linecap:butt;stroke-linejoin:miter;stroke-opacity:1" />
</svg>
